<svg width="25" height="25" viewBox="0 0 25 25" fill="none" xmlns="http://www.w3.org/2000/svg">
<path fill-rule="evenodd" clip-rule="evenodd" d="M1.04538 3.64584C1.04538 3.07054 1.51175 2.60417 2.08705 2.60417H20.837C21.4123 2.60417 21.8787 3.07054 21.8787 3.64584V9.375H19.7954V4.68751H3.12871V19.2708H9.37871V21.3542H2.08705C1.51175 21.3542 1.04538 20.8878 1.04538 20.3125V3.64584Z" fill="black"/>
<path fill-rule="evenodd" clip-rule="evenodd" d="M2.08704 6.77083H20.837V8.85416H2.08704V6.77083Z" fill="black"/>
<path fill-rule="evenodd" clip-rule="evenodd" d="M5.21204 5.20833V1.5625H7.29537V5.20833H5.21204Z" fill="black"/>
<path fill-rule="evenodd" clip-rule="evenodd" d="M15.6287 5.20833V1.5625H17.7121V5.20833H15.6287Z" fill="black"/>
<path fill-rule="evenodd" clip-rule="evenodd" d="M17.1912 9.89583C13.4518 9.89583 10.4204 12.9272 10.4204 16.6667C10.4204 20.4061 13.4518 23.4375 17.1912 23.4375C20.9306 23.4375 23.962 20.4061 23.962 16.6667C23.962 12.9272 20.9306 9.89583 17.1912 9.89583ZM16.1495 15.625V14.0625H18.2329V15.625H19.7954V17.7083H18.2329V19.2708H16.1495V17.7083H14.587V15.625H16.1495Z" fill="black"/>
</svg>
