<svg width="292" height="68" viewBox="0 0 292 68" fill="none" xmlns="http://www.w3.org/2000/svg">
<path d="M37.665 42.9662C44.8201 40.589 50 33.6321 50 25.4202C50 15.247 42.0503 7 32.2439 7C23.7643 7 16.673 13.1664 14.9094 21.4124C16.0941 21.1481 17.3202 20.9991 18.576 20.9771C20.3967 14.9433 25.8275 10.5652 32.2439 10.5652C40.1523 10.5652 46.5633 17.216 46.5633 25.4202C46.5633 31.5993 42.9267 36.8973 37.7526 39.1363C37.7862 39.6139 37.8032 40.0963 37.8032 40.5829C37.8032 41.3896 37.7563 42.185 37.665 42.9662Z" fill="#6349F6"/>
<path d="M35.5121 41.7713C35.5121 51.9445 27.5625 60.1915 17.7561 60.1915C7.94966 60.1915 0 51.9445 0 41.7713C0 31.598 7.94966 23.351 17.7561 23.351C27.5625 23.351 35.5121 31.598 35.5121 41.7713Z" fill="#5FCF9B"/>
<path d="M32.0755 41.7713C32.0755 49.9755 25.6645 56.6263 17.7561 56.6263C9.84768 56.6263 3.43666 49.9755 3.43666 41.7713C3.43666 33.567 9.84768 26.9162 17.7561 26.9162C25.6645 26.9162 32.0755 33.567 32.0755 41.7713Z" fill="white"/>
<path d="M16.0377 37.8717C16.0377 37.2906 16.4918 36.8196 17.0519 36.8196H17.6965C18.2566 36.8196 18.7107 37.2906 18.7107 37.8717V40.3855L18.6014 40.482C17.8492 41.1464 17.5518 42.0833 17.7933 43.0574C17.9145 43.5464 17.9587 43.95 17.6965 43.95H17.0519C16.4918 43.95 16.0377 43.479 16.0377 42.8979V37.8717Z" fill="#6349F6"/>
<path d="M25.1155 34.7287C25.542 34.352 26.182 34.4053 26.5451 34.8477L26.963 35.3569C27.3261 35.7994 27.2747 36.4634 26.8482 36.84L18.5427 44.1756C18.1162 44.5523 17.4761 44.499 17.1131 44.0566L16.6952 43.5474C16.3321 43.1049 16.3835 42.4409 16.8099 42.0643L25.1155 34.7287Z" fill="#6349F6"/>
<path d="M19.4744 42.9283C19.4744 43.9128 18.7051 44.7109 17.7561 44.7109C16.8071 44.7109 16.0377 43.9128 16.0377 42.9283C16.0377 41.9438 16.8071 41.1457 17.7561 41.1457C18.7051 41.1457 19.4744 41.9438 19.4744 42.9283Z" fill="#16103A"/>
<path d="M24.6448 18.1959C24.3162 17.7254 24.4176 17.0676 24.8712 16.7267L25.3933 16.3344C25.8469 15.9936 26.481 16.0988 26.8095 16.5693L33.209 25.7351C33.5375 26.2057 33.4361 26.8634 32.9825 27.2043L32.4604 27.5966C32.0068 27.9374 31.3727 27.8323 31.0442 27.3617L24.6448 18.1959Z" fill="#5FCF9B"/>
<path d="M36.6786 24.0952C37.2211 23.9506 37.7738 24.2896 37.9132 24.8523L38.0737 25.5001C38.2131 26.0628 37.8863 26.6363 37.3438 26.7809L32.6515 28.0318C32.1091 28.1764 31.5563 27.8374 31.4169 27.2746L31.2564 26.6269C31.117 26.0641 31.4438 25.4907 31.9863 25.3461L36.6786 24.0952Z" fill="#5FCF9B"/>
<path d="M33.8612 26.7031C33.8612 27.6876 33.0919 28.4857 32.1429 28.4857C31.1939 28.4857 30.4245 27.6876 30.4245 26.7031C30.4245 25.7186 31.1939 24.9205 32.1429 24.9205C33.0919 24.9205 33.8612 25.7186 33.8612 26.7031Z" fill="#16103A"/>
<path d="M82.8145 39.5186L86.3862 44.1108L89.7432 48.0317L96.2422 56.2227H88.6689L84.1841 50.6904L81.9551 47.5215L75.9126 39.5186H82.8145ZM96.8599 33.5566C96.8599 37.6745 96.0721 41.2463 94.4966 44.272C92.939 47.2798 90.7816 49.5804 88.0244 51.1738C85.2852 52.7493 82.1789 53.5371 78.7056 53.5371C75.2323 53.5371 72.117 52.7493 69.3599 51.1738C66.6206 49.5804 64.4632 47.2708 62.8877 44.2451C61.3301 41.2194 60.5513 37.6566 60.5513 33.5566C60.5513 29.403 61.3301 25.8223 62.8877 22.8145C64.4632 19.8066 66.6206 17.515 69.3599 15.9395C72.117 14.3639 75.2323 13.5762 78.7056 13.5762C82.1789 13.5762 85.2852 14.3639 88.0244 15.9395C90.7816 17.515 92.939 19.8066 94.4966 22.8145C96.0721 25.8223 96.8599 29.403 96.8599 33.5566ZM88.6958 33.5566C88.6958 30.8174 88.284 28.4899 87.4604 26.5742C86.6548 24.6585 85.5 23.2083 83.9961 22.2236C82.5101 21.221 80.7466 20.7197 78.7056 20.7197C76.6825 20.7197 74.9189 21.221 73.415 22.2236C71.929 23.2083 70.7743 24.6585 69.9507 26.5742C69.1271 28.4899 68.7153 30.8174 68.7153 33.5566C68.7153 36.2959 69.1271 38.6234 69.9507 40.5391C70.7743 42.4548 71.929 43.9139 73.415 44.9165C74.9189 45.9012 76.6825 46.3936 78.7056 46.3936C80.7466 46.3936 82.5101 45.9012 83.9961 44.9165C85.5 43.9139 86.6548 42.4548 87.4604 40.5391C88.284 38.6234 88.6958 36.2959 88.6958 33.5566ZM121.298 23.835H129.194V53H121.594V47.7363H121.271C120.573 49.473 119.463 50.8516 117.941 51.8721C116.42 52.8747 114.584 53.376 112.436 53.376C110.502 53.376 108.793 52.9373 107.307 52.0601C105.821 51.1649 104.657 49.8937 103.815 48.2466C102.992 46.5815 102.58 44.63 102.58 42.3921V23.835H110.529V41.0225C110.529 42.1504 110.735 43.144 111.147 44.0034C111.559 44.8449 112.15 45.4984 112.919 45.9639C113.707 46.4115 114.602 46.6353 115.605 46.6353C116.625 46.6353 117.565 46.4025 118.425 45.937C119.302 45.4715 120 44.7733 120.52 43.8423C121.039 42.9113 121.298 41.8192 121.298 40.5659V23.835ZM148.53 53.564C145.629 53.564 143.096 52.9373 140.93 51.6841C138.763 50.4308 137.098 48.6673 135.935 46.3936C134.771 44.1198 134.189 41.4969 134.189 38.5249C134.189 35.5171 134.771 32.8853 135.935 30.6294C137.098 28.3556 138.763 26.5921 140.93 25.3389C143.096 24.0856 145.629 23.459 148.53 23.459C151.412 23.459 153.937 24.0856 156.103 25.3389C158.287 26.5921 159.952 28.3556 161.098 30.6294C162.244 32.8853 162.817 35.5171 162.817 38.5249C162.817 41.4969 162.244 44.1198 161.098 46.3936C159.952 48.6673 158.287 50.4308 156.103 51.6841C153.937 52.9373 151.412 53.564 148.53 53.564ZM148.583 47.4141C149.908 47.4141 151.027 47.0291 151.94 46.2593C152.871 45.4894 153.57 44.4331 154.035 43.0903C154.501 41.7297 154.733 40.1899 154.733 38.4712C154.733 36.7345 154.501 35.1948 154.035 33.8521C153.57 32.5093 152.871 31.453 151.94 30.6831C151.027 29.9132 149.908 29.5283 148.583 29.5283C147.223 29.5283 146.068 29.9132 145.119 30.6831C144.17 31.453 143.454 32.5093 142.971 33.8521C142.487 35.1769 142.246 36.7166 142.246 38.4712C142.246 40.2078 142.487 41.7476 142.971 43.0903C143.454 44.4331 144.17 45.4894 145.119 46.2593C146.068 47.0291 147.223 47.4141 148.583 47.4141ZM164.321 14.1133H196.171V20.7734H184.248V53H176.271V20.7734H164.321V14.1133ZM201.032 23.835H208.981V53H201.032V23.835ZM205.007 19.9946C204.219 19.9946 203.494 19.8156 202.832 19.4575C202.169 19.0994 201.641 18.6071 201.247 17.9805C200.853 17.3538 200.656 16.6825 200.656 15.9663C200.656 15.2323 200.853 14.5609 201.247 13.9521C201.641 13.3255 202.169 12.8332 202.832 12.4751C203.494 12.117 204.219 11.938 205.007 11.938C205.795 11.938 206.52 12.117 207.182 12.4751C207.845 12.8332 208.364 13.3255 208.74 13.9521C209.134 14.5609 209.331 15.2323 209.331 15.9663C209.331 16.6825 209.134 17.3538 208.74 17.9805C208.364 18.6071 207.845 19.0994 207.182 19.4575C206.52 19.8156 205.795 19.9946 205.007 19.9946ZM215.158 23.835H222.731V28.9375H223.054C223.698 27.2008 224.728 25.8581 226.142 24.9092C227.556 23.9424 229.239 23.459 231.191 23.459C232.498 23.459 233.688 23.6828 234.763 24.1304C235.855 24.5601 236.768 25.1867 237.502 26.0103C238.236 26.8338 238.773 27.8096 239.113 28.9375H239.382C239.812 27.8275 240.447 26.8607 241.289 26.0371C242.13 25.2135 243.142 24.578 244.323 24.1304C245.505 23.6828 246.794 23.459 248.19 23.459C250.017 23.459 251.619 23.8529 252.998 24.6406C254.394 25.4105 255.477 26.5474 256.247 28.0513C257.017 29.5373 257.402 31.3276 257.402 33.4224V53H249.426V34.9263C249.426 33.3328 249.005 32.1243 248.164 31.3008C247.322 30.4593 246.221 30.0386 244.86 30.0386C243.876 30.0386 243.025 30.2534 242.309 30.6831C241.611 31.0949 241.065 31.6857 240.671 32.4556C240.295 33.2075 240.107 34.1027 240.107 35.1411V53H232.399V34.7114C232.399 33.7804 232.211 32.9569 231.835 32.2407C231.477 31.5246 230.958 30.9785 230.278 30.6025C229.597 30.2266 228.81 30.0386 227.915 30.0386C227.019 30.0386 226.205 30.2624 225.471 30.71C224.755 31.1396 224.182 31.7663 223.752 32.5898C223.322 33.4134 223.107 34.3713 223.107 35.4634V53H215.158V23.835ZM276.738 53.564C273.802 53.564 271.241 52.9552 269.057 51.7378C266.891 50.5203 265.217 48.7837 264.035 46.5278C262.871 44.272 262.29 41.6222 262.29 38.5786C262.29 35.5708 262.871 32.93 264.035 30.6562C265.217 28.3646 266.873 26.5921 269.003 25.3389C271.134 24.0856 273.605 23.459 276.416 23.459C279.047 23.459 281.393 24.014 283.452 25.124C285.511 26.2161 287.131 27.8722 288.312 30.0923C289.494 32.3123 290.085 35.0247 290.085 38.2295V40.4585H265.539V35.4902H282.592C282.592 34.3086 282.333 33.2612 281.813 32.3481C281.294 31.4172 280.578 30.6921 279.665 30.1729C278.752 29.6536 277.714 29.394 276.55 29.394C275.314 29.394 274.213 29.6805 273.247 30.2534C272.28 30.8084 271.519 31.5783 270.964 32.563C270.427 33.5477 270.149 34.6219 270.131 35.7856V40.4585C270.131 41.9087 270.409 43.1799 270.964 44.272C271.519 45.3641 272.298 46.1966 273.3 46.7695C274.321 47.3424 275.502 47.6289 276.845 47.6289C277.74 47.6289 278.555 47.5036 279.289 47.2529C280.023 46.9844 280.641 46.6442 281.142 46.2324C281.661 45.8027 282.055 45.3014 282.324 44.7285H289.897C289.521 46.501 288.742 48.0586 287.561 49.4014C286.397 50.7262 284.884 51.7557 283.022 52.4897C281.178 53.2059 279.083 53.564 276.738 53.564Z" fill="black"/>
</svg>
