<svg width="122" height="25" viewBox="0 0 122 25" fill="none" xmlns="http://www.w3.org/2000/svg">
<path d="M12.3154 15.8809L14.3955 18.5762L15.8457 20.29L19.3906 24.8311H15.6699L13.2676 21.7842L12.2422 20.3633L8.8584 15.8809H12.3154ZM19.8887 12.3945C19.8887 14.6211 19.4688 16.5596 18.6289 18.21C17.7988 19.8506 16.6465 21.1104 15.1719 21.9893C13.6973 22.8584 12.0273 23.293 10.1621 23.293C8.29688 23.293 6.62695 22.8584 5.15234 21.9893C3.6875 21.1104 2.53516 19.8457 1.69531 18.1953C0.855469 16.5449 0.435547 14.6113 0.435547 12.3945C0.435547 10.1484 0.855469 8.20508 1.69531 6.56445C2.53516 4.92383 3.6875 3.66895 5.15234 2.7998C6.62695 1.93066 8.29688 1.49609 10.1621 1.49609C12.0273 1.49609 13.6973 1.93066 15.1719 2.7998C16.6465 3.66895 17.7988 4.92383 18.6289 6.56445C19.4688 8.20508 19.8887 10.1484 19.8887 12.3945ZM16.0654 12.3945C16.0654 10.8125 15.8164 9.45996 15.3184 8.33691C14.8301 7.21387 14.1416 6.36426 13.2529 5.78809C12.374 5.21191 11.3438 4.92383 10.1621 4.92383C9 4.92383 7.96973 5.21191 7.07129 5.78809C6.18262 6.36426 5.48926 7.21387 4.99121 8.33691C4.50293 9.45996 4.25879 10.8125 4.25879 12.3945C4.25879 13.9766 4.50293 15.3291 4.99121 16.4521C5.48926 17.5752 6.18262 18.4248 7.07129 19.001C7.96973 19.5771 9 19.8652 10.1621 19.8652C11.3438 19.8652 12.374 19.5771 13.2529 19.001C14.1416 18.4248 14.8301 17.5752 15.3184 16.4521C15.8164 15.3291 16.0654 13.9766 16.0654 12.3945ZM34.2066 7.0918H37.9127V23H34.3238V20.1875H34.148C33.7574 21.1055 33.152 21.8379 32.3316 22.3848C31.5211 22.9316 30.5299 23.2051 29.358 23.2051C28.3131 23.2051 27.3902 22.9707 26.5895 22.502C25.7984 22.0234 25.1783 21.335 24.7291 20.4365C24.2896 19.5381 24.0699 18.4639 24.0699 17.2139V7.0918H27.7906V16.6426C27.7906 17.3066 27.9127 17.8877 28.1568 18.3857C28.4107 18.8838 28.7672 19.2695 29.2262 19.543C29.6852 19.8066 30.2076 19.9385 30.7936 19.9385C31.3795 19.9385 31.9312 19.8018 32.4488 19.5283C32.9762 19.2451 33.401 18.8301 33.7232 18.2832C34.0455 17.7266 34.2066 17.0674 34.2066 16.3057V7.0918ZM49.3596 23.3076C47.8361 23.3076 46.4934 22.9658 45.3312 22.2822C44.1789 21.5986 43.2902 20.6367 42.6652 19.3965C42.0402 18.1562 41.7277 16.7256 41.7277 15.1045C41.7277 13.4639 42.0402 12.0283 42.6652 10.7979C43.2902 9.55762 44.1789 8.5957 45.3312 7.91211C46.4934 7.22852 47.8361 6.88672 49.3596 6.88672C50.8928 6.88672 52.2355 7.22852 53.3879 7.91211C54.5402 8.5957 55.424 9.55762 56.0393 10.7979C56.6545 12.0283 56.9621 13.4639 56.9621 15.1045C56.9621 16.7256 56.6545 18.1562 56.0393 19.3965C55.424 20.6367 54.5402 21.5986 53.3879 22.2822C52.2355 22.9658 50.8928 23.3076 49.3596 23.3076ZM49.3889 20.334C50.2092 20.334 50.9025 20.1045 51.4689 19.6455C52.0451 19.1768 52.4748 18.5469 52.758 17.7559C53.0412 16.9648 53.1828 16.0762 53.1828 15.0898C53.1828 14.0938 53.0412 13.2002 52.758 12.4092C52.4748 11.6182 52.0451 10.9932 51.4689 10.5342C50.9025 10.0654 50.2092 9.83105 49.3889 9.83105C48.549 9.83105 47.8361 10.0654 47.2502 10.5342C46.6643 10.9932 46.2248 11.6182 45.9318 12.4092C45.6389 13.2002 45.4924 14.0938 45.4924 15.0898C45.4924 16.0859 45.6389 16.9795 45.9318 17.7705C46.2248 18.5518 46.6643 19.1768 47.2502 19.6455C47.8361 20.1045 48.549 20.334 49.3889 20.334ZM68.6873 9.96289H59.576V7.0918H68.6873V9.96289ZM65.5672 3.2832V18.2246C65.5672 18.7031 65.6404 19.0791 65.7869 19.3525C65.9334 19.6162 66.1287 19.8018 66.3729 19.9092C66.6268 20.0068 66.9295 20.0605 67.2811 20.0703C67.7107 20.0801 68.2527 20.0557 68.907 19.9971V23.0586C68.3016 23.166 67.5984 23.2197 66.7977 23.2197C65.8406 23.2197 64.9861 23.0586 64.2342 22.7363C63.4822 22.4043 62.8914 21.9111 62.4617 21.2568C62.032 20.6025 61.8221 19.792 61.8318 18.8252V3.2832H65.5672ZM72.5023 7.0918H76.223V23H72.5023V7.0918ZM74.348 4.82129C73.9672 4.82129 73.6107 4.7334 73.2787 4.55762C72.9467 4.37207 72.683 4.12305 72.4877 3.81055C72.2924 3.49805 72.1947 3.16113 72.1947 2.7998C72.1947 2.42871 72.2924 2.08691 72.4877 1.77441C72.683 1.46191 72.9467 1.21777 73.2787 1.04199C73.6107 0.866211 73.9672 0.77832 74.348 0.77832C74.7484 0.77832 75.1146 0.866211 75.4467 1.04199C75.7787 1.21777 76.0424 1.46191 76.2377 1.77441C76.433 2.08691 76.5307 2.42871 76.5307 2.7998C76.5307 3.16113 76.433 3.49805 76.2377 3.81055C76.0424 4.12305 75.7787 4.37207 75.4467 4.55762C75.1146 4.7334 74.7484 4.82129 74.348 4.82129ZM80.7266 7.0918H84.2861V9.78711H84.4619C84.8135 8.86914 85.3652 8.15625 86.1172 7.64844C86.8789 7.14062 87.792 6.88672 88.8564 6.88672C89.5596 6.88672 90.1992 7.00391 90.7754 7.23828C91.3516 7.46289 91.8398 7.79004 92.2402 8.21973C92.6406 8.64941 92.9434 9.17188 93.1484 9.78711H93.3096C93.5537 9.19141 93.9053 8.67871 94.3643 8.24902C94.8232 7.80957 95.3701 7.47266 96.0049 7.23828C96.6494 7.00391 97.3477 6.88672 98.0996 6.88672C99.0859 6.88672 99.9502 7.09668 100.692 7.5166C101.444 7.92676 102.025 8.54199 102.436 9.3623C102.855 10.1729 103.065 11.1641 103.065 12.3359V23H99.3301V12.8926C99.3301 11.9453 99.0762 11.2324 98.5684 10.7539C98.0605 10.2656 97.4014 10.0215 96.5908 10.0215C95.9951 10.0215 95.4775 10.1533 95.0381 10.417C94.6084 10.6709 94.2764 11.0225 94.042 11.4717C93.8174 11.9209 93.7051 12.4482 93.7051 13.0537V23H90.0576V12.7314C90.0576 12.1943 89.9453 11.7207 89.7207 11.3105C89.4961 10.8906 89.1836 10.5732 88.7832 10.3584C88.3828 10.1338 87.9189 10.0215 87.3916 10.0215C86.8545 10.0215 86.3613 10.1582 85.9121 10.4316C85.4629 10.7051 85.1064 11.0908 84.8428 11.5889C84.5791 12.0869 84.4473 12.6631 84.4473 13.3174V23H80.7266V7.0918ZM114.586 23.3076C113.013 23.3076 111.646 22.9756 110.484 22.3115C109.322 21.6475 108.423 20.7002 107.789 19.4697C107.164 18.2393 106.851 16.7988 106.851 15.1484C106.851 13.5176 107.164 12.0771 107.789 10.8271C108.423 9.56738 109.307 8.5957 110.44 7.91211C111.573 7.22852 112.891 6.88672 114.395 6.88672C115.753 6.88672 116.978 7.1748 118.072 7.75098C119.166 8.32715 120.035 9.2207 120.679 10.4316C121.324 11.6328 121.646 13.1221 121.646 14.8994V16.0713H108.624V13.5371H118.072C118.072 12.8145 117.921 12.1699 117.618 11.6035C117.315 11.0371 116.885 10.5928 116.329 10.2705C115.782 9.94824 115.152 9.78711 114.439 9.78711C113.677 9.78711 113.004 9.96777 112.418 10.3291C111.832 10.6904 111.373 11.1787 111.041 11.7939C110.718 12.3994 110.552 13.0635 110.543 13.7861V15.9541C110.543 16.8818 110.709 17.6826 111.041 18.3564C111.382 19.0205 111.861 19.5283 112.476 19.8799C113.091 20.2314 113.809 20.4072 114.629 20.4072C115.157 20.4072 115.63 20.334 116.05 20.1875C116.48 20.041 116.846 19.8506 117.149 19.6162C117.452 19.3721 117.681 19.084 117.838 18.752H121.5C121.275 19.6602 120.85 20.4609 120.225 21.1543C119.61 21.8379 118.819 22.3701 117.852 22.751C116.885 23.1221 115.796 23.3076 114.586 23.3076Z" fill="#5FCF9B"/>
</svg>
