<svg width="114" height="26" viewBox="0 0 114 26" fill="none" xmlns="http://www.w3.org/2000/svg">
<path d="M18.8325 17.5803C22.4101 16.4183 25 13.0178 25 9.00381C25 4.03114 21.0252 0 16.122 0C11.8822 0 8.33651 3.01412 7.45468 7.04479C8.04707 6.91561 8.66009 6.84274 9.28802 6.83199C10.1984 3.8827 12.9137 1.74267 16.122 1.74267C20.0762 1.74267 23.2817 4.9936 23.2817 9.00381C23.2817 12.0242 21.4633 14.6138 18.8763 15.7082C18.8931 15.9417 18.9016 16.1775 18.9016 16.4153C18.9016 16.8096 18.8781 17.1984 18.8325 17.5803Z" fill="#6349F6"/>
<path d="M17.7561 16.9962C17.7561 21.9689 13.7812 26 8.87803 26C3.97483 26 0 21.9689 0 16.9962C0 12.0235 3.97483 7.99238 8.87803 7.99238C13.7812 7.99238 17.7561 12.0235 17.7561 16.9962Z" fill="#5FCF9B"/>
<path d="M16.0377 16.9962C16.0377 21.0064 12.8322 24.2573 8.87803 24.2573C4.92384 24.2573 1.71833 21.0064 1.71833 16.9962C1.71833 12.986 4.92384 9.73505 8.87803 9.73505C12.8322 9.73505 16.0377 12.986 16.0377 16.9962Z" fill="white"/>
<path d="M8.01887 15.0901C8.01887 14.8061 8.24589 14.5758 8.52594 14.5758H8.84827C9.12832 14.5758 9.35535 14.8061 9.35535 15.0901V16.3188V16.3188C8.94505 16.6731 8.79817 17.1747 8.91551 17.7039C8.96029 17.9059 8.96458 18.0612 8.84827 18.0612H8.52594C8.24589 18.0612 8.01887 17.8309 8.01887 17.5469V15.0901Z" fill="#6349F6"/>
<path d="M12.5577 13.5538C12.771 13.3697 13.091 13.3957 13.2726 13.612L13.4815 13.8609C13.663 14.0771 13.6374 14.4017 13.4241 14.5858L9.27134 18.1715C9.05811 18.3556 8.73807 18.3295 8.55653 18.1133L8.34758 17.8644C8.16604 17.6481 8.19173 17.3235 8.40496 17.1394L12.5577 13.5538Z" fill="#6349F6"/>
<path d="M9.7372 17.5617C9.7372 18.043 9.35254 18.4331 8.87803 18.4331C8.40353 18.4331 8.01887 18.043 8.01887 17.5617C8.01887 17.0805 8.40353 16.6904 8.87803 16.6904C9.35254 16.6904 9.7372 17.0805 9.7372 17.5617Z" fill="#16103A"/>
<path d="M12.3224 5.47258C12.1581 5.24256 12.2088 4.92103 12.4356 4.75442L12.6966 4.56267C12.9235 4.39607 13.2405 4.44747 13.4048 4.67749L16.6045 9.15771C16.7688 9.38773 16.7181 9.70925 16.4913 9.87586L16.2302 10.0676C16.0034 10.2342 15.6864 10.1828 15.5221 9.95279L12.3224 5.47258Z" fill="#5FCF9B"/>
<path d="M18.3393 8.35614C18.6105 8.28545 18.8869 8.45115 18.9566 8.72623L19.0368 9.04283C19.1065 9.31792 18.9432 9.59822 18.6719 9.6689L16.3258 10.2803C16.0545 10.351 15.7781 10.1853 15.7084 9.91023L15.6282 9.59362C15.5585 9.31854 15.7219 9.03824 15.9931 8.96756L18.3393 8.35614Z" fill="#5FCF9B"/>
<path d="M16.9306 9.63086C16.9306 10.1121 16.5459 10.5022 16.0714 10.5022C15.5969 10.5022 15.2123 10.1121 15.2123 9.63086C15.2123 9.14963 15.5969 8.75952 16.0714 8.75952C16.5459 8.75952 16.9306 9.14963 16.9306 9.63086Z" fill="#16103A"/>
<path d="M36.5723 17.3428L37.8062 18.9292L38.9658 20.2837L41.2109 23.1133H38.5947L37.0454 21.2021L36.2754 20.1074L34.188 17.3428H36.5723ZM41.4243 15.2832C41.4243 16.7057 41.1522 17.9396 40.6079 18.9849C40.0698 20.0239 39.3245 20.8187 38.3721 21.3691C37.4258 21.9134 36.3527 22.1855 35.1528 22.1855C33.953 22.1855 32.8768 21.9134 31.9243 21.3691C30.978 20.8187 30.2327 20.0208 29.6885 18.9756C29.1504 17.9303 28.8813 16.6995 28.8813 15.2832C28.8813 13.8483 29.1504 12.6113 29.6885 11.5723C30.2327 10.5332 30.978 9.74154 31.9243 9.19727C32.8768 8.65299 33.953 8.38086 35.1528 8.38086C36.3527 8.38086 37.4258 8.65299 38.3721 9.19727C39.3245 9.74154 40.0698 10.5332 40.6079 11.5723C41.1522 12.6113 41.4243 13.8483 41.4243 15.2832ZM38.604 15.2832C38.604 14.3369 38.4618 13.5329 38.1772 12.8711C37.8989 12.2093 37.5 11.7083 36.9805 11.3682C36.4671 11.0218 35.8579 10.8486 35.1528 10.8486C34.4539 10.8486 33.8447 11.0218 33.3252 11.3682C32.8118 11.7083 32.4129 12.2093 32.1284 12.8711C31.8439 13.5329 31.7017 14.3369 31.7017 15.2832C31.7017 16.2295 31.8439 17.0335 32.1284 17.6953C32.4129 18.3571 32.8118 18.8612 33.3252 19.2075C33.8447 19.5477 34.4539 19.7178 35.1528 19.7178C35.8579 19.7178 36.4671 19.5477 36.9805 19.2075C37.5 18.8612 37.8989 18.3571 38.1772 17.6953C38.4618 17.0335 38.604 16.2295 38.604 15.2832ZM49.8667 11.9248H52.5942V22H49.9688V20.1816H49.8574C49.6162 20.7816 49.2327 21.2578 48.707 21.6104C48.1813 21.9567 47.5474 22.1299 46.8052 22.1299C46.1372 22.1299 45.5465 21.9784 45.0332 21.6753C44.5199 21.366 44.1178 20.9269 43.8271 20.3579C43.5426 19.7827 43.4004 19.1086 43.4004 18.3354V11.9248H46.1465V17.8623C46.1465 18.252 46.2176 18.5952 46.3599 18.8921C46.5021 19.1828 46.7062 19.4085 46.9722 19.5693C47.2443 19.724 47.5535 19.8013 47.8999 19.8013C48.2524 19.8013 48.5771 19.7209 48.874 19.5601C49.1771 19.3993 49.4183 19.158 49.5977 18.8364C49.777 18.5148 49.8667 18.1375 49.8667 17.7046V11.9248ZM59.2739 22.1948C58.272 22.1948 57.3968 21.9784 56.6484 21.5454C55.9001 21.1125 55.3249 20.5033 54.9229 19.7178C54.5208 18.9323 54.3198 18.0262 54.3198 16.9995C54.3198 15.9604 54.5208 15.0513 54.9229 14.272C55.3249 13.4865 55.9001 12.8773 56.6484 12.4443C57.3968 12.0114 58.272 11.7949 59.2739 11.7949C60.2697 11.7949 61.1418 12.0114 61.8901 12.4443C62.6447 12.8773 63.2199 13.4865 63.6157 14.272C64.0116 15.0513 64.2095 15.9604 64.2095 16.9995C64.2095 18.0262 64.0116 18.9323 63.6157 19.7178C63.2199 20.5033 62.6447 21.1125 61.8901 21.5454C61.1418 21.9784 60.2697 22.1948 59.2739 22.1948ZM59.2925 20.0703C59.7502 20.0703 60.1367 19.9373 60.4521 19.6714C60.7738 19.4054 61.015 19.0405 61.1758 18.5767C61.3366 18.1066 61.417 17.5747 61.417 16.981C61.417 16.381 61.3366 15.8491 61.1758 15.3853C61.015 14.9214 60.7738 14.5565 60.4521 14.2905C60.1367 14.0246 59.7502 13.8916 59.2925 13.8916C58.8224 13.8916 58.4235 14.0246 58.0957 14.2905C57.7679 14.5565 57.5205 14.9214 57.3535 15.3853C57.1865 15.8429 57.103 16.3748 57.103 16.981C57.103 17.5809 57.1865 18.1128 57.3535 18.5767C57.5205 19.0405 57.7679 19.4054 58.0957 19.6714C58.4235 19.9373 58.8224 20.0703 59.2925 20.0703ZM64.729 8.56641H75.7319V10.8672H71.6128V22H68.8574V10.8672H64.729V8.56641ZM77.4111 11.9248H80.1572V22H77.4111V11.9248ZM78.7842 10.5981C78.512 10.5981 78.2616 10.5363 78.0327 10.4126C77.8039 10.2889 77.6214 10.1188 77.4854 9.90234C77.3493 9.68587 77.2812 9.45394 77.2812 9.20654C77.2812 8.95296 77.3493 8.72103 77.4854 8.51074C77.6214 8.29427 77.8039 8.12419 78.0327 8.00049C78.2616 7.87679 78.512 7.81494 78.7842 7.81494C79.0563 7.81494 79.3068 7.87679 79.5356 8.00049C79.7645 8.12419 79.9438 8.29427 80.0737 8.51074C80.2098 8.72103 80.2778 8.95296 80.2778 9.20654C80.2778 9.45394 80.2098 9.68587 80.0737 9.90234C79.9438 10.1188 79.7645 10.2889 79.5356 10.4126C79.3068 10.5363 79.0563 10.5981 78.7842 10.5981ZM82.291 11.9248H84.9072V13.6875H85.0186C85.2412 13.0876 85.5968 12.6237 86.0854 12.2959C86.5741 11.9619 87.1554 11.7949 87.8296 11.7949C88.2811 11.7949 88.6924 11.8722 89.0635 12.0269C89.4408 12.1753 89.7562 12.3918 90.0098 12.6763C90.2633 12.9608 90.4489 13.2979 90.5664 13.6875H90.6592C90.8076 13.304 91.0272 12.9701 91.3179 12.6855C91.6086 12.401 91.958 12.1815 92.3662 12.0269C92.7744 11.8722 93.2197 11.7949 93.7021 11.7949C94.333 11.7949 94.8866 11.931 95.3628 12.2031C95.8452 12.4691 96.2194 12.8618 96.4854 13.3813C96.7513 13.8947 96.8843 14.5132 96.8843 15.2368V22H94.1289V15.7563C94.1289 15.2059 93.9836 14.7884 93.6929 14.5039C93.4022 14.2132 93.0218 14.0679 92.5518 14.0679C92.2116 14.0679 91.9178 14.1421 91.6704 14.2905C91.4292 14.4328 91.2406 14.6369 91.1045 14.9028C90.9746 15.1626 90.9097 15.4718 90.9097 15.8306V22H88.2471V15.6821C88.2471 15.3605 88.1821 15.076 88.0522 14.8286C87.9285 14.5812 87.7492 14.3926 87.5142 14.2627C87.2791 14.1328 87.007 14.0679 86.6978 14.0679C86.3885 14.0679 86.1071 14.1452 85.8535 14.2998C85.6061 14.4482 85.4082 14.6647 85.2598 14.9492C85.1113 15.2337 85.0371 15.5646 85.0371 15.9419V22H82.291V11.9248ZM103.564 22.1948C102.55 22.1948 101.665 21.9845 100.911 21.564C100.162 21.1434 99.584 20.5435 99.1758 19.7642C98.7738 18.9849 98.5728 18.0695 98.5728 17.0181C98.5728 15.979 98.7738 15.0667 99.1758 14.2812C99.584 13.4896 100.156 12.8773 100.892 12.4443C101.628 12.0114 102.482 11.7949 103.453 11.7949C104.362 11.7949 105.172 11.9867 105.883 12.3701C106.595 12.7474 107.154 13.3195 107.562 14.0864C107.971 14.8534 108.175 15.7904 108.175 16.8975V17.6675H99.6953V15.9512H105.586C105.586 15.543 105.497 15.1812 105.317 14.8657C105.138 14.5441 104.891 14.2936 104.575 14.1143C104.26 13.9349 103.901 13.8452 103.499 13.8452C103.072 13.8452 102.692 13.9442 102.358 14.1421C102.024 14.3338 101.761 14.5998 101.569 14.9399C101.384 15.2801 101.288 15.6512 101.282 16.0532V17.6675C101.282 18.1685 101.378 18.6076 101.569 18.9849C101.761 19.3621 102.03 19.6497 102.376 19.8477C102.729 20.0456 103.137 20.1445 103.601 20.1445C103.91 20.1445 104.192 20.1012 104.445 20.0146C104.699 19.9219 104.912 19.8044 105.085 19.6621C105.265 19.5137 105.401 19.3405 105.494 19.1426H108.11C107.98 19.7549 107.711 20.293 107.303 20.7568C106.901 21.2145 106.378 21.5701 105.735 21.8237C105.098 22.0711 104.374 22.1948 103.564 22.1948Z" fill="black"/>
</svg>
