<svg width="122" height="154" viewBox="0 0 122 154" fill="none" xmlns="http://www.w3.org/2000/svg">
<rect width="122" height="153.861" rx="6.97143" fill="white"/>
<path d="M92.4994 90.1105H92.0169V87.3072H92.4994V90.1105ZM89.3285 89.4569C89.7932 89.4569 90.1872 89.4484 90.5106 89.4314C90.8357 89.4126 91.1676 89.3752 91.5063 89.319L91.5624 89.7147C91.2118 89.7709 90.8689 89.8092 90.5336 89.8296C90.1983 89.85 89.7966 89.8603 89.3285 89.8603H88.9481V89.4569H89.3285ZM91.0391 88.8876H89.4205V89.6867H88.9481V88.5148H90.5591V87.9889H88.9379V87.5881H91.0391V88.8876ZM90.9701 90.1973C91.2918 90.1973 91.5701 90.2304 91.805 90.2968C92.0398 90.3615 92.2194 90.4568 92.3437 90.5828C92.4679 90.7087 92.53 90.8602 92.53 91.0372C92.53 91.2108 92.4679 91.3597 92.3437 91.484C92.2194 91.6099 92.0407 91.7061 91.8075 91.7725C91.5743 91.8388 91.2952 91.872 90.9701 91.872C90.6502 91.872 90.3736 91.8388 90.1404 91.7725C89.9072 91.7061 89.7285 91.6099 89.6043 91.484C89.48 91.3597 89.4179 91.2108 89.4179 91.0372C89.4179 90.8602 89.48 90.7087 89.6043 90.5828C89.7285 90.4568 89.9072 90.3615 90.1404 90.2968C90.3736 90.2304 90.6502 90.1973 90.9701 90.1973ZM90.9701 90.5802C90.7472 90.5802 90.5548 90.5981 90.3932 90.6338C90.2315 90.6679 90.1081 90.7189 90.023 90.787C89.9379 90.8551 89.8953 90.9385 89.8953 91.0372C89.8953 91.1308 89.9379 91.2117 90.023 91.2797C90.1081 91.3478 90.2315 91.3997 90.3932 91.4355C90.5548 91.4712 90.7472 91.4891 90.9701 91.4891C91.1965 91.4891 91.3897 91.4712 91.5497 91.4355C91.7114 91.3997 91.8339 91.3478 91.9173 91.2797C92.0024 91.2117 92.0449 91.1308 92.0449 91.0372C92.0449 90.9385 92.0024 90.8551 91.9173 90.787C91.8339 90.7189 91.7114 90.6679 91.5497 90.6338C91.3897 90.5981 91.1965 90.5802 90.9701 90.5802ZM96.6353 88.1472H93.7197V87.7489H96.6353V88.1472ZM97.3961 91.267H93.2244V90.8636H97.3961V91.267ZM96.9059 88.3029C96.9059 88.5974 96.9025 88.8459 96.8957 89.0484C96.8906 89.2492 96.8735 89.4756 96.8446 89.7275C96.8174 89.9777 96.7723 90.2517 96.7093 90.5496L96.2242 90.5062C96.2872 90.2338 96.3332 89.9777 96.3621 89.7377C96.3927 89.496 96.4123 89.2756 96.4208 89.0765C96.4293 88.8773 96.4336 88.6365 96.4336 88.354V88.3029V87.7489H96.9059V88.3029ZM93.6559 89.5258L93.5921 89.1301L96.5459 89.0152V89.3726L93.6559 89.5258ZM103.191 90.0313H99.0198V89.6381H103.191V90.0313ZM101.346 89.7479H100.861V88.9795H101.346V89.7479ZM102.678 91.8771H102.193V90.8227H99.4819V90.4398H102.678V91.8771ZM100.049 87.9046H102.168V87.4119H102.648V89.1429H99.5687V87.4119H100.049V87.9046ZM102.168 88.7574V88.2672H100.049V88.7574H102.168ZM105.037 88.4663C105.037 88.8152 104.984 89.1522 104.879 89.4773C104.773 89.8007 104.624 90.0875 104.432 90.3377C104.24 90.5879 104.017 90.7793 103.763 90.9121L103.459 90.5215C103.693 90.4109 103.898 90.2475 104.075 90.0313C104.253 89.8135 104.393 89.5684 104.493 89.296C104.594 89.022 104.644 88.7454 104.644 88.4663V87.6825H105.037V88.4663ZM105.121 88.4663C105.121 88.7352 105.17 89.0007 105.267 89.2629C105.366 89.5233 105.503 89.7573 105.678 89.9649C105.853 90.1709 106.052 90.3283 106.273 90.4372L105.977 90.8253C105.73 90.6959 105.512 90.5104 105.323 90.2687C105.136 90.0271 104.991 89.7505 104.889 89.439C104.787 89.1275 104.736 88.8033 104.736 88.4663V87.6825H105.121V88.4663ZM107.103 91.8771H106.62V87.3021H107.103V91.8771ZM107.84 89.5437H106.993V89.1275H107.84V89.5437Z" fill="#6349F6"/>
<rect x="109.103" y="87.7599" width="4.55495" height="4.61154" fill="#6349F6"/>
<path d="M109.969 87.1428H114.331V91.592" stroke="#6349F6" stroke-width="0.348571"/>
<path d="M11.6118 81.2568H11.5837L11.5684 81.2797C11.5225 81.3597 11.4697 81.4329 11.4101 81.4993C11.3506 81.564 11.2689 81.6201 11.1651 81.6678C11.0612 81.7138 10.9336 81.7367 10.7821 81.7367C10.5591 81.7367 10.3592 81.6797 10.1821 81.5657C10.0068 81.4499 9.86897 81.284 9.76855 81.0678C9.66984 80.85 9.62048 80.5955 9.62048 80.3045C9.62048 80.01 9.67069 79.7556 9.77111 79.5411C9.87153 79.325 10.0094 79.1607 10.1847 79.0484C10.3617 78.9344 10.5625 78.8774 10.7872 78.8774C10.937 78.8774 11.0638 78.9012 11.1676 78.9488C11.2731 78.9965 11.3548 79.0527 11.4127 79.1173C11.4723 79.182 11.5242 79.2552 11.5684 79.3369L11.5837 79.3599H11.6246V78.9131H12.1582V82.7273H11.6118V81.2568ZM10.9021 81.2746C11.0553 81.2746 11.1863 81.2338 11.2953 81.1521C11.4042 81.0704 11.4867 80.9564 11.5429 80.81C11.5991 80.6619 11.6271 80.4909 11.6271 80.2968C11.6271 80.1028 11.5999 79.9343 11.5455 79.7913C11.491 79.6484 11.4084 79.5377 11.2978 79.4594C11.1889 79.3811 11.057 79.342 10.9021 79.342C10.7472 79.342 10.6153 79.3829 10.5064 79.4645C10.3974 79.5445 10.3149 79.6569 10.2587 79.8015C10.2026 79.9462 10.1745 80.1113 10.1745 80.2968C10.1745 80.4858 10.2026 80.6543 10.2587 80.8023C10.3149 80.9487 10.3974 81.0644 10.5064 81.1495C10.6153 81.2329 10.7472 81.2746 10.9021 81.2746ZM14.5835 78.9131H15.1248V81.6857H14.5938V81.2057H14.5631C14.4933 81.3606 14.3878 81.4857 14.2465 81.581C14.107 81.6746 13.9368 81.7214 13.7359 81.7214C13.5555 81.7214 13.3972 81.6814 13.2611 81.6014C13.1249 81.5214 13.0177 81.4031 12.9394 81.2466C12.8628 81.0883 12.8245 80.8976 12.8245 80.6747V78.9131H13.3683V80.6109C13.3683 80.7334 13.3913 80.8415 13.4372 80.9351C13.4849 81.027 13.5513 81.0985 13.6364 81.1495C13.7232 81.2006 13.821 81.2261 13.93 81.2261C14.0372 81.2261 14.141 81.1997 14.2414 81.147C14.3419 81.0942 14.4235 81.0151 14.4865 80.9096C14.5512 80.804 14.5835 80.6781 14.5835 80.5317V78.9131ZM16.9629 81.7418C16.7042 81.7418 16.4762 81.6823 16.2787 81.5631C16.083 81.444 15.9315 81.2763 15.8243 81.0602C15.7171 80.844 15.6635 80.5947 15.6635 80.3121C15.6635 80.0262 15.7171 79.7752 15.8243 79.559C15.9315 79.3429 16.083 79.1752 16.2787 79.0561C16.4762 78.9369 16.7042 78.8774 16.9629 78.8774C17.22 78.8774 17.4463 78.9369 17.642 79.0561C17.8378 79.1752 17.9884 79.3429 18.0939 79.559C18.1995 79.7752 18.2522 80.0262 18.2522 80.3121C18.2522 80.5947 18.1995 80.844 18.0939 81.0602C17.9884 81.2763 17.8378 81.444 17.642 81.5631C17.4463 81.6823 17.22 81.7418 16.9629 81.7418ZM16.9629 81.2874C17.1263 81.2874 17.2634 81.244 17.374 81.1572C17.4846 81.0687 17.5672 80.9513 17.6216 80.8049C17.6761 80.6568 17.7033 80.4917 17.7033 80.3096C17.7033 80.1275 17.6761 79.9624 17.6216 79.8143C17.5672 79.6662 17.4846 79.5488 17.374 79.462C17.2634 79.3735 17.1263 79.3292 16.9629 79.3292C16.7996 79.3292 16.6617 79.3735 16.5494 79.462C16.437 79.5488 16.3528 79.6662 16.2966 79.8143C16.2404 79.9624 16.2124 80.1275 16.2124 80.3096C16.2124 80.4917 16.2404 80.6568 16.2966 80.8049C16.3528 80.9513 16.437 81.0687 16.5494 81.1572C16.6617 81.244 16.7996 81.2874 16.9629 81.2874ZM20.0904 79.3471H18.5739V78.9131H20.0904V79.3471ZM19.5287 78.2493V80.8713C19.5287 80.97 19.5432 81.0457 19.5721 81.0985C19.6011 81.1512 19.6394 81.1878 19.687 81.2083C19.7347 81.2287 19.7917 81.2389 19.8581 81.2389C19.9398 81.2389 20.0308 81.2355 20.1312 81.2287V81.6984C20.0342 81.7138 19.9219 81.7214 19.7942 81.7214C19.6462 81.7214 19.51 81.6942 19.3858 81.6397C19.2632 81.5835 19.1645 81.5001 19.0896 81.3895C19.0164 81.2772 18.9798 81.141 18.9798 80.981V78.2493H19.5287ZM20.6265 78.9131H21.1703V81.6857H20.6265V78.9131ZM20.8971 78.4842C20.8359 78.4842 20.7789 78.4706 20.7261 78.4433C20.6733 78.4144 20.6316 78.3753 20.601 78.3259C20.5704 78.2748 20.555 78.2204 20.555 78.1625C20.555 78.1029 20.5704 78.0493 20.601 78.0017C20.6316 77.9523 20.6733 77.9132 20.7261 77.8842C20.7789 77.8553 20.8359 77.8408 20.8971 77.8408C20.9618 77.8408 21.0205 77.8553 21.0733 77.8842C21.1261 77.9132 21.1669 77.9523 21.1958 78.0017C21.2265 78.0493 21.2418 78.1029 21.2418 78.1625C21.2418 78.2204 21.2265 78.2748 21.1958 78.3259C21.1669 78.3753 21.1261 78.4144 21.0733 78.4433C21.0205 78.4706 20.9618 78.4842 20.8971 78.4842ZM21.8366 78.9131H22.3575V79.365H22.3932C22.4545 79.2101 22.5498 79.0901 22.6791 79.005C22.8085 78.9199 22.9642 78.8774 23.1463 78.8774C23.2672 78.8774 23.3761 78.8961 23.4731 78.9335C23.5718 78.971 23.6561 79.0263 23.7259 79.0995C23.7957 79.1727 23.851 79.2612 23.8918 79.365H23.9199C23.9659 79.2629 24.0288 79.1761 24.1088 79.1046C24.1888 79.0314 24.2833 78.9752 24.3922 78.9361C24.5028 78.8969 24.6237 78.8774 24.7547 78.8774C24.9266 78.8774 25.0764 78.9131 25.2041 78.9846C25.3317 79.0561 25.4313 79.1624 25.5028 79.3037C25.576 79.445 25.6126 79.6203 25.6126 79.8296V81.6857H25.0662V79.8807C25.0662 79.7003 25.0177 79.5667 24.9207 79.4799C24.8237 79.3914 24.6994 79.3471 24.5479 79.3471C24.4322 79.3471 24.3326 79.3718 24.2492 79.4211C24.1658 79.4688 24.102 79.536 24.0578 79.6228C24.0135 79.7079 23.9914 79.8067 23.9914 79.919V81.6857H23.4502V79.8424C23.4502 79.7454 23.4289 79.6594 23.3863 79.5845C23.3455 79.5079 23.2868 79.4492 23.2102 79.4084C23.1336 79.3675 23.0459 79.3471 22.9472 79.3471C22.8468 79.3471 22.7532 79.3735 22.6664 79.4263C22.5796 79.479 22.5098 79.5531 22.457 79.6484C22.406 79.7437 22.3804 79.8526 22.3804 79.9751V81.6857H21.8366V78.9131ZM27.4686 81.7418C27.2014 81.7418 26.9674 81.6831 26.7665 81.5657C26.5674 81.4482 26.4142 81.2823 26.307 81.0678C26.1997 80.8534 26.1461 80.604 26.1461 80.3198C26.1461 80.0356 26.1997 79.7845 26.307 79.5667C26.4142 79.3471 26.5648 79.1778 26.7589 79.0586C26.9529 78.9378 27.1767 78.8774 27.4303 78.8774C27.655 78.8774 27.8601 78.9259 28.0456 79.0229C28.2311 79.1182 28.38 79.2705 28.4924 79.4799C28.6047 79.6875 28.6609 79.9505 28.6609 80.2687V80.4602H26.4525V80.0543H28.1273C28.1273 79.913 28.0983 79.7879 28.0405 79.679C27.9843 79.5684 27.9035 79.4816 27.7979 79.4186C27.6924 79.3556 27.5716 79.3241 27.4354 79.3241C27.2873 79.3241 27.1571 79.3599 27.0448 79.4314C26.9325 79.5028 26.8448 79.599 26.7818 79.7198C26.7189 79.8407 26.6874 79.97 26.6874 80.1079V80.4245C26.6874 80.6066 26.7197 80.7632 26.7844 80.8942C26.8508 81.0253 26.9427 81.1249 27.0601 81.1929C27.1793 81.261 27.3163 81.2951 27.4712 81.2951C27.5699 81.2951 27.6592 81.2814 27.7392 81.2542C27.8192 81.2253 27.8873 81.1895 27.9435 81.147C27.9996 81.1027 28.043 81.0508 28.0737 80.9912H28.6277C28.5868 81.141 28.5136 81.2721 28.4081 81.3844C28.3026 81.4967 28.169 81.5844 28.0073 81.6474C27.8473 81.7103 27.6677 81.7418 27.4686 81.7418ZM29.5544 81.7214C29.4897 81.7214 29.4293 81.7044 29.3731 81.6704C29.317 81.6363 29.2727 81.5921 29.2404 81.5376C29.2098 81.4814 29.1944 81.421 29.1944 81.3563C29.1944 81.2934 29.2098 81.2338 29.2404 81.1776C29.2727 81.1215 29.317 81.0781 29.3731 81.0474C29.4293 81.0151 29.4897 80.9989 29.5544 80.9989C29.6174 80.9989 29.677 81.0151 29.7331 81.0474C29.7893 81.0781 29.8335 81.1215 29.8659 81.1776C29.8982 81.2338 29.9144 81.2934 29.9144 81.3563C29.9144 81.421 29.8982 81.4814 29.8659 81.5376C29.8335 81.5921 29.7893 81.6363 29.7331 81.6704C29.677 81.7044 29.6174 81.7214 29.5544 81.7214ZM31.75 81.7418C31.4862 81.7418 31.2556 81.6806 31.0581 81.558C30.8624 81.4355 30.7118 81.2661 30.6063 81.05C30.5024 80.8338 30.4505 80.5879 30.4505 80.3121C30.4505 80.0313 30.5041 79.7828 30.6114 79.5667C30.7186 79.3488 30.8692 79.1795 31.0632 79.0586C31.2573 78.9378 31.4828 78.8774 31.7398 78.8774C31.9508 78.8774 32.1398 78.9156 32.3066 78.9922C32.4734 79.0688 32.607 79.1778 32.7074 79.319C32.8078 79.4603 32.8682 79.6237 32.8886 79.8092H32.3576C32.3389 79.7207 32.3023 79.6407 32.2478 79.5692C32.1951 79.496 32.127 79.4382 32.0436 79.3956C31.9602 79.3531 31.8632 79.3318 31.7526 79.3318C31.6028 79.3318 31.4709 79.3709 31.3568 79.4492C31.2445 79.5275 31.1569 79.639 31.0939 79.7837C31.0309 79.9283 30.9994 80.0994 30.9994 80.2968C30.9994 80.496 31.0301 80.6696 31.0913 80.8176C31.1543 80.964 31.242 81.0772 31.3543 81.1572C31.4666 81.2372 31.5994 81.2772 31.7526 81.2772C31.8547 81.2772 31.9474 81.2593 32.0308 81.2236C32.1159 81.1861 32.1866 81.1317 32.2427 81.0602C32.2989 80.9887 32.3372 80.9036 32.3576 80.8049H32.8886C32.8682 80.9853 32.8087 81.1461 32.7099 81.2874C32.6129 81.4287 32.4819 81.5401 32.3168 81.6218C32.1517 81.7018 31.9628 81.7418 31.75 81.7418ZM34.5787 81.7418C34.32 81.7418 34.092 81.6823 33.8945 81.5631C33.6988 81.444 33.5473 81.2763 33.4401 81.0602C33.3329 80.844 33.2793 80.5947 33.2793 80.3121C33.2793 80.0262 33.3329 79.7752 33.4401 79.559C33.5473 79.3429 33.6988 79.1752 33.8945 79.0561C34.092 78.9369 34.32 78.8774 34.5787 78.8774C34.8357 78.8774 35.0621 78.9369 35.2578 79.0561C35.4536 79.1752 35.6042 79.3429 35.7097 79.559C35.8152 79.7752 35.868 80.0262 35.868 80.3121C35.868 80.5947 35.8152 80.844 35.7097 81.0602C35.6042 81.2763 35.4536 81.444 35.2578 81.5631C35.0621 81.6823 34.8357 81.7418 34.5787 81.7418ZM34.5787 81.2874C34.7421 81.2874 34.8791 81.244 34.9898 81.1572C35.1004 81.0687 35.183 80.9513 35.2374 80.8049C35.2919 80.6568 35.3191 80.4917 35.3191 80.3096C35.3191 80.1275 35.2919 79.9624 35.2374 79.8143C35.183 79.6662 35.1004 79.5488 34.9898 79.462C34.8791 79.3735 34.7421 79.3292 34.5787 79.3292C34.4153 79.3292 34.2775 79.3735 34.1651 79.462C34.0528 79.5488 33.9686 79.6662 33.9124 79.8143C33.8562 79.9624 33.8282 80.1275 33.8282 80.3096C33.8282 80.4917 33.8562 80.6568 33.9124 80.8049C33.9686 80.9513 34.0528 81.0687 34.1651 81.1572C34.2775 81.244 34.4153 81.2874 34.5787 81.2874ZM36.7692 81.7214C36.7045 81.7214 36.6441 81.7044 36.588 81.6704C36.5318 81.6363 36.4875 81.5921 36.4552 81.5376C36.4246 81.4814 36.4092 81.421 36.4092 81.3563C36.4092 81.2934 36.4246 81.2338 36.4552 81.1776C36.4875 81.1215 36.5318 81.0781 36.588 81.0474C36.6441 81.0151 36.7045 80.9989 36.7692 80.9989C36.8322 80.9989 36.8918 81.0151 36.9479 81.0474C37.0041 81.0781 37.0484 81.1215 37.0807 81.1776C37.113 81.2338 37.1292 81.2934 37.1292 81.3563C37.1292 81.421 37.113 81.4814 37.0807 81.5376C37.0484 81.5921 37.0041 81.6363 36.9479 81.6704C36.8918 81.7044 36.8322 81.7214 36.7692 81.7214ZM38.2883 80.0824H38.3853L39.4856 78.9131H40.1366L38.8755 80.2509H38.7887L38.2934 80.7462L38.2883 80.0824ZM37.793 77.9889H38.3368V81.6857H37.793V77.9889ZM38.5538 80.3734L38.9265 79.9905L40.2107 81.6857H39.5443L38.5538 80.3734ZM40.5656 78.9131H41.0915V79.3573H41.1221C41.1715 79.2041 41.26 79.085 41.3876 78.9999C41.5153 78.9131 41.6591 78.8697 41.8191 78.8697C41.9042 78.8697 41.9825 78.8748 42.054 78.885V79.4058C42.0318 79.3973 41.9918 79.3897 41.934 79.3829C41.8761 79.3743 41.8208 79.3701 41.768 79.3701C41.6455 79.3701 41.534 79.3973 41.4336 79.4518C41.3332 79.5045 41.254 79.5786 41.1961 79.6739C41.1383 79.7692 41.1093 79.8764 41.1093 79.9956V81.6857H40.5656V78.9131ZM42.511 82.2422H42.031L43.2207 77.8153H43.7058L42.511 82.2422ZM45.281 81.7418C45.0172 81.7418 44.7865 81.6806 44.5891 81.558C44.3934 81.4355 44.2427 81.2661 44.1372 81.05C44.0334 80.8338 43.9815 80.5879 43.9815 80.3121C43.9815 80.0313 44.0351 79.7828 44.1423 79.5667C44.2496 79.3488 44.4002 79.1795 44.5942 79.0586C44.7882 78.9378 45.0138 78.8774 45.2708 78.8774C45.4818 78.8774 45.6707 78.9156 45.8375 78.9922C46.0043 79.0688 46.1379 79.1778 46.2384 79.319C46.3388 79.4603 46.3992 79.6237 46.4196 79.8092H45.8886C45.8699 79.7207 45.8333 79.6407 45.7788 79.5692C45.726 79.496 45.658 79.4382 45.5746 79.3956C45.4912 79.3531 45.3942 79.3318 45.2835 79.3318C45.1337 79.3318 45.0018 79.3709 44.8878 79.4492C44.7755 79.5275 44.6878 79.639 44.6248 79.7837C44.5619 79.9283 44.5304 80.0994 44.5304 80.2968C44.5304 80.496 44.561 80.6696 44.6223 80.8176C44.6853 80.964 44.7729 81.0772 44.8853 81.1572C44.9976 81.2372 45.1303 81.2772 45.2835 81.2772C45.3856 81.2772 45.4784 81.2593 45.5618 81.2236C45.6469 81.1861 45.7175 81.1317 45.7737 81.0602C45.8299 80.9887 45.8682 80.9036 45.8886 80.8049H46.4196C46.3992 80.9853 46.3396 81.1461 46.2409 81.2874C46.1439 81.4287 46.0128 81.5401 45.8477 81.6218C45.6826 81.7018 45.4937 81.7418 45.281 81.7418ZM47.4817 81.6857H46.9379V77.9889H47.4817V81.6857ZM49.3147 81.7418C49.056 81.7418 48.828 81.6823 48.6305 81.5631C48.4348 81.444 48.2833 81.2763 48.1761 81.0602C48.0689 80.844 48.0152 80.5947 48.0152 80.3121C48.0152 80.0262 48.0689 79.7752 48.1761 79.559C48.2833 79.3429 48.4348 79.1752 48.6305 79.0561C48.828 78.9369 49.056 78.8774 49.3147 78.8774C49.5717 78.8774 49.7981 78.9369 49.9938 79.0561C50.1896 79.1752 50.3402 79.3429 50.4457 79.559C50.5512 79.7752 50.604 80.0262 50.604 80.3121C50.604 80.5947 50.5512 80.844 50.4457 81.0602C50.3402 81.2763 50.1896 81.444 49.9938 81.5631C49.7981 81.6823 49.5717 81.7418 49.3147 81.7418ZM49.3147 81.2874C49.4781 81.2874 49.6151 81.244 49.7258 81.1572C49.8364 81.0687 49.9189 80.9513 49.9734 80.8049C50.0279 80.6568 50.0551 80.4917 50.0551 80.3096C50.0551 80.1275 50.0279 79.9624 49.9734 79.8143C49.9189 79.6662 49.8364 79.5488 49.7258 79.462C49.6151 79.3735 49.4781 79.3292 49.3147 79.3292C49.1513 79.3292 49.0135 79.3735 48.9011 79.462C48.7888 79.5488 48.7046 79.6662 48.6484 79.8143C48.5922 79.9624 48.5641 80.1275 48.5641 80.3096C48.5641 80.4917 48.5922 80.6568 48.6484 80.8049C48.7046 80.9513 48.7888 81.0687 48.9011 81.1572C49.0135 81.244 49.1513 81.2874 49.3147 81.2874ZM52.9094 78.9131H53.4506V81.6857H52.9196V81.2057H52.8889C52.8192 81.3606 52.7136 81.4857 52.5724 81.581C52.4328 81.6746 52.2626 81.7214 52.0618 81.7214C51.8814 81.7214 51.7231 81.6814 51.5869 81.6014C51.4508 81.5214 51.3435 81.4031 51.2652 81.2466C51.1886 81.0883 51.1503 80.8976 51.1503 80.6747V78.9131H51.6941V80.6109C51.6941 80.7334 51.7171 80.8415 51.7631 80.9351C51.8107 81.027 51.8771 81.0985 51.9622 81.1495C52.049 81.2006 52.1469 81.2261 52.2558 81.2261C52.363 81.2261 52.4669 81.1997 52.5673 81.147C52.6677 81.0942 52.7494 81.0151 52.8124 80.9096C52.877 80.804 52.9094 80.6781 52.9094 80.5317V78.9131ZM55.1535 81.7367C54.9305 81.7367 54.7305 81.6797 54.5535 81.5657C54.3782 81.4499 54.2403 81.284 54.1399 81.0678C54.0412 80.85 53.9919 80.5955 53.9919 80.3045C53.9919 80.01 54.0421 79.7556 54.1425 79.5411C54.2429 79.325 54.3808 79.1607 54.5561 79.0484C54.7331 78.9344 54.9339 78.8774 55.1586 78.8774C55.3084 78.8774 55.4352 78.9012 55.539 78.9488C55.6445 78.9965 55.7262 79.0527 55.7841 79.1173C55.8436 79.182 55.8955 79.2552 55.9398 79.3369L55.9551 79.3599H55.9832V77.9889H56.5295V81.6857H55.996V81.2568H55.9551L55.9398 81.2797C55.8938 81.3597 55.8411 81.4329 55.7815 81.4993C55.7219 81.564 55.6402 81.6201 55.5364 81.6678C55.4326 81.7138 55.305 81.7367 55.1535 81.7367ZM55.2735 81.2746C55.4266 81.2746 55.5577 81.2338 55.6666 81.1521C55.7756 81.0704 55.8581 80.9564 55.9143 80.81C55.9704 80.6619 55.9985 80.4909 55.9985 80.2968C55.9985 80.1028 55.9713 79.9343 55.9168 79.7913C55.8624 79.6484 55.7798 79.5377 55.6692 79.4594C55.5603 79.3811 55.4283 79.342 55.2735 79.342C55.1186 79.342 54.9867 79.3829 54.8777 79.4645C54.7688 79.5445 54.6863 79.6569 54.6301 79.8015C54.5739 79.9462 54.5459 80.1113 54.5459 80.2968C54.5459 80.4858 54.5739 80.6543 54.6301 80.8023C54.6863 80.9487 54.7688 81.0644 54.8777 81.1495C54.9867 81.2329 55.1186 81.2746 55.2735 81.2746ZM57.2418 78.9131H57.7627V79.365H57.7984C57.8597 79.2101 57.955 79.0901 58.0843 79.005C58.2137 78.9199 58.3694 78.8774 58.5515 78.8774C58.6724 78.8774 58.7813 78.8961 58.8783 78.9335C58.977 78.971 59.0613 79.0263 59.1311 79.0995C59.2009 79.1727 59.2562 79.2612 59.297 79.365H59.3251C59.3711 79.2629 59.434 79.1761 59.514 79.1046C59.594 79.0314 59.6885 78.9752 59.7974 78.9361C59.908 78.8969 60.0289 78.8774 60.1599 78.8774C60.3318 78.8774 60.4816 78.9131 60.6093 78.9846C60.7369 79.0561 60.8365 79.1624 60.908 79.3037C60.9812 79.445 61.0177 79.6203 61.0177 79.8296V81.6857H60.4714V79.8807C60.4714 79.7003 60.4229 79.5667 60.3259 79.4799C60.2289 79.3914 60.1046 79.3471 59.9531 79.3471C59.8374 79.3471 59.7378 79.3718 59.6544 79.4211C59.571 79.4688 59.5072 79.536 59.463 79.6228C59.4187 79.7079 59.3966 79.8067 59.3966 79.919V81.6857H58.8553V79.8424C58.8553 79.7454 58.8341 79.6594 58.7915 79.5845C58.7507 79.5079 58.692 79.4492 58.6154 79.4084C58.5388 79.3675 58.4511 79.3471 58.3524 79.3471C58.252 79.3471 58.1584 79.3735 58.0716 79.4263C57.9848 79.479 57.915 79.5531 57.8622 79.6484C57.8112 79.7437 57.7856 79.8526 57.7856 79.9751V81.6857H57.2418V78.9131ZM63.3512 80.4296C63.3069 80.4296 63.1682 80.4381 62.9351 80.4551L62.6593 80.4755C62.4755 80.4892 62.3325 80.5317 62.2304 80.6032C62.13 80.6747 62.0798 80.7768 62.0798 80.9096C62.0798 80.9964 62.1019 81.0695 62.1462 81.1291C62.1904 81.187 62.2526 81.2321 62.3325 81.2644C62.4125 81.2951 62.5036 81.3104 62.6057 81.3104C62.7504 81.3104 62.8755 81.2823 62.981 81.2261C63.0882 81.1683 63.1708 81.0917 63.2287 80.9964C63.2865 80.8993 63.3155 80.7955 63.3155 80.6849L63.3129 79.8118C63.3129 79.7062 63.2916 79.6169 63.2491 79.5437C63.2082 79.4688 63.1453 79.4126 63.0602 79.3752C62.9751 79.336 62.8712 79.3165 62.7487 79.3165C62.5938 79.3165 62.467 79.3488 62.3683 79.4135C62.2713 79.4765 62.2083 79.5616 62.1794 79.6688H61.633C61.6517 79.5139 61.7096 79.3769 61.8066 79.2578C61.9036 79.1386 62.0347 79.0459 62.1998 78.9795C62.3649 78.9114 62.5538 78.8774 62.7666 78.8774C62.9453 78.8774 63.1146 78.9046 63.2746 78.9591C63.4363 79.0118 63.5733 79.1105 63.6856 79.2552C63.798 79.3982 63.8541 79.5948 63.8541 79.8449V81.6857H63.3257V81.3053H63.3052C63.2678 81.3819 63.2133 81.4533 63.1419 81.5197C63.0704 81.5861 62.9785 81.6406 62.8661 81.6831C62.7555 81.7257 62.6278 81.7469 62.4832 81.7469C62.3045 81.7469 62.1445 81.7138 62.0032 81.6474C61.8619 81.581 61.7505 81.484 61.6688 81.3563C61.5871 81.2287 61.5462 81.0781 61.5462 80.9044C61.5462 80.6151 61.6432 80.4092 61.8373 80.2866C62.033 80.1641 62.2815 80.0934 62.5827 80.0747C62.6236 80.0696 62.7853 80.0594 63.0678 80.0441L63.3461 80.0339L63.3512 80.4296ZM65.8098 79.3471H64.2933V78.9131H65.8098V79.3471ZM65.2481 78.2493V80.8713C65.2481 80.97 65.2626 81.0457 65.2915 81.0985C65.3204 81.1512 65.3587 81.1878 65.4064 81.2083C65.454 81.2287 65.5111 81.2389 65.5774 81.2389C65.6591 81.2389 65.7502 81.2355 65.8506 81.2287V81.6984C65.7536 81.7138 65.6413 81.7214 65.5136 81.7214C65.3655 81.7214 65.2294 81.6942 65.1051 81.6397C64.9826 81.5835 64.8839 81.5001 64.809 81.3895C64.7358 81.2772 64.6992 81.141 64.6992 80.981V78.2493H65.2481ZM67.4871 81.7418C67.2284 81.7418 67.0003 81.6823 66.8029 81.5631C66.6071 81.444 66.4557 81.2763 66.3484 81.0602C66.2412 80.844 66.1876 80.5947 66.1876 80.3121C66.1876 80.0262 66.2412 79.7752 66.3484 79.559C66.4557 79.3429 66.6071 79.1752 66.8029 79.0561C67.0003 78.9369 67.2284 78.8774 67.4871 78.8774C67.7441 78.8774 67.9705 78.9369 68.1662 79.0561C68.3619 79.1752 68.5125 79.3429 68.6181 79.559C68.7236 79.7752 68.7764 80.0262 68.7764 80.3121C68.7764 80.5947 68.7236 80.844 68.6181 81.0602C68.5125 81.2763 68.3619 81.444 68.1662 81.5631C67.9705 81.6823 67.7441 81.7418 67.4871 81.7418ZM67.4871 81.2874C67.6505 81.2874 67.7875 81.244 67.8981 81.1572C68.0087 81.0687 68.0913 80.9513 68.1458 80.8049C68.2002 80.6568 68.2275 80.4917 68.2275 80.3096C68.2275 80.1275 68.2002 79.9624 68.1458 79.8143C68.0913 79.6662 68.0087 79.5488 67.8981 79.462C67.7875 79.3735 67.6505 79.3292 67.4871 79.3292C67.3237 79.3292 67.1858 79.3735 67.0735 79.462C66.9612 79.5488 66.8769 79.6662 66.8207 79.8143C66.7646 79.9624 66.7365 80.1275 66.7365 80.3096C66.7365 80.4917 66.7646 80.6568 66.8207 80.8049C66.8769 80.9513 66.9612 81.0687 67.0735 81.1572C67.1858 81.244 67.3237 81.2874 67.4871 81.2874ZM70.6018 81.7367C70.3175 81.7367 70.0741 81.6627 69.8716 81.5146C69.6691 81.3665 69.5142 81.1504 69.4069 80.8662C69.2997 80.5819 69.2461 80.239 69.2461 79.8373C69.2461 79.439 69.2997 79.0978 69.4069 78.8135C69.5142 78.5293 69.6699 78.3123 69.8742 78.1625C70.0784 78.0127 70.3209 77.9378 70.6018 77.9378C70.8826 77.9378 71.1251 78.0127 71.3294 78.1625C71.5336 78.3123 71.6893 78.5293 71.7966 78.8135C71.9038 79.0978 71.9574 79.439 71.9574 79.8373C71.9574 80.239 71.9038 80.5819 71.7966 80.8662C71.691 81.1504 71.5362 81.3665 71.3319 81.5146C71.1294 81.6627 70.886 81.7367 70.6018 81.7367ZM70.6018 81.2542C70.7669 81.2542 70.909 81.1997 71.0281 81.0908C71.149 80.9819 71.2409 80.8219 71.3038 80.6109C71.3668 80.3981 71.3974 80.1402 71.3957 79.8373C71.3957 79.5343 71.3643 79.2765 71.3013 79.0637C71.2383 78.851 71.1473 78.6893 71.0281 78.5787C70.909 78.468 70.7669 78.4127 70.6018 78.4127C70.4367 78.4127 70.2945 78.468 70.1754 78.5787C70.0563 78.6893 69.9644 78.851 69.8997 79.0637C69.835 79.2765 69.8027 79.5343 69.8027 79.8373C69.8027 80.1402 69.8342 80.3981 69.8971 80.6109C69.9601 80.8219 70.052 80.9819 70.1729 81.0908C70.2937 81.1997 70.4367 81.2542 70.6018 81.2542ZM73.8288 81.7367C73.5445 81.7367 73.3011 81.6627 73.0986 81.5146C72.8961 81.3665 72.7412 81.1504 72.634 80.8662C72.5267 80.5819 72.4731 80.239 72.4731 79.8373C72.4731 79.439 72.5267 79.0978 72.634 78.8135C72.7412 78.5293 72.8969 78.3123 73.1012 78.1625C73.3054 78.0127 73.5479 77.9378 73.8288 77.9378C74.1096 77.9378 74.3521 78.0127 74.5564 78.1625C74.7606 78.3123 74.9164 78.5293 75.0236 78.8135C75.1308 79.0978 75.1844 79.439 75.1844 79.8373C75.1844 80.239 75.1308 80.5819 75.0236 80.8662C74.9181 81.1504 74.7632 81.3665 74.5589 81.5146C74.3564 81.6627 74.113 81.7367 73.8288 81.7367ZM73.8288 81.2542C73.9939 81.2542 74.136 81.1997 74.2551 81.0908C74.376 80.9819 74.4679 80.8219 74.5308 80.6109C74.5938 80.3981 74.6245 80.1402 74.6228 79.8373C74.6228 79.5343 74.5913 79.2765 74.5283 79.0637C74.4653 78.851 74.3743 78.6893 74.2551 78.5787C74.136 78.468 73.9939 78.4127 73.8288 78.4127C73.6637 78.4127 73.5216 78.468 73.4024 78.5787C73.2833 78.6893 73.1914 78.851 73.1267 79.0637C73.062 79.2765 73.0297 79.5343 73.0297 79.8373C73.0297 80.1402 73.0612 80.3981 73.1241 80.6109C73.1871 80.8219 73.279 80.9819 73.3999 81.0908C73.5207 81.1997 73.6637 81.2542 73.8288 81.2542ZM75.9912 82.2422H75.5112L76.7009 77.8153H77.186L75.9912 82.2422ZM78.9093 79.3471H77.3392V78.9131H78.9093V79.3471ZM77.7681 78.5914C77.7681 78.428 77.8021 78.2885 77.8702 78.1727C77.9383 78.057 78.0344 77.9685 78.1587 77.9072C78.2829 77.8459 78.4293 77.8153 78.5978 77.8153C78.6608 77.8153 78.7237 77.8187 78.7867 77.8255C78.8497 77.8306 78.9101 77.8391 78.968 77.851V78.3055C78.8778 78.2919 78.8003 78.2851 78.7357 78.2851C78.5927 78.2851 78.4872 78.3157 78.4191 78.377C78.351 78.4382 78.317 78.5353 78.317 78.668V81.6857H77.7681V78.5914ZM79.402 78.9131H79.9458V81.6857H79.402V78.9131ZM79.6726 78.4842C79.6113 78.4842 79.5543 78.4706 79.5016 78.4433C79.4488 78.4144 79.4071 78.3753 79.3765 78.3259C79.3458 78.2748 79.3305 78.2204 79.3305 78.1625C79.3305 78.1029 79.3458 78.0493 79.3765 78.0017C79.4071 77.9523 79.4488 77.9132 79.5016 77.8842C79.5543 77.8553 79.6113 77.8408 79.6726 77.8408C79.7373 77.8408 79.796 77.8553 79.8488 77.8842C79.9015 77.9132 79.9424 77.9523 79.9713 78.0017C80.002 78.0493 80.0173 78.1029 80.0173 78.1625C80.0173 78.2204 80.002 78.2748 79.9713 78.3259C79.9424 78.3753 79.9015 78.4144 79.8488 78.4433C79.796 78.4706 79.7373 78.4842 79.6726 78.4842ZM80.6121 78.9131H81.138V79.3573H81.1687C81.218 79.2041 81.3065 79.085 81.4342 78.9999C81.5618 78.9131 81.7057 78.8697 81.8657 78.8697C81.9508 78.8697 82.029 78.8748 82.1005 78.885V79.4058C82.0784 79.3973 82.0384 79.3897 81.9805 79.3829C81.9227 79.3743 81.8674 79.3701 81.8146 79.3701C81.692 79.3701 81.5806 79.3973 81.4801 79.4518C81.3797 79.5045 81.3006 79.5786 81.2427 79.6739C81.1849 79.7692 81.1559 79.8764 81.1559 79.9956V81.6857H80.6121V78.9131ZM84.0664 79.6688C84.0408 79.5531 83.983 79.4637 83.8927 79.4007C83.8042 79.3377 83.6868 79.3063 83.5404 79.3063C83.4383 79.3063 83.3464 79.3224 83.2647 79.3548C83.1847 79.3854 83.1209 79.4297 83.0732 79.4875C83.0273 79.5437 83.0043 79.6075 83.0043 79.679C83.0043 79.7607 83.04 79.8313 83.1115 79.8909C83.183 79.9505 83.2928 79.9964 83.4409 80.0288L83.8825 80.1309C84.1378 80.1888 84.3285 80.2798 84.4544 80.4041C84.5804 80.5266 84.6433 80.6857 84.6433 80.8815C84.6433 81.0483 84.5974 81.1972 84.5055 81.3282C84.4153 81.4576 84.2851 81.5589 84.1149 81.6321C83.9447 81.7052 83.7421 81.7418 83.5072 81.7418C83.2877 81.7418 83.0979 81.7103 82.9379 81.6474C82.7779 81.5827 82.6503 81.4899 82.555 81.3691C82.4614 81.2466 82.4026 81.1002 82.3788 80.93H82.9379C82.9635 81.0525 83.023 81.1453 83.1166 81.2083C83.2119 81.2712 83.3404 81.3027 83.5021 81.3027C83.6179 81.3027 83.7191 81.2882 83.8059 81.2593C83.8945 81.2287 83.9625 81.1844 84.0102 81.1266C84.0595 81.0687 84.0842 81.0015 84.0842 80.9249C84.0842 80.8347 84.0493 80.7598 83.9796 80.7002C83.9115 80.6406 83.8034 80.5955 83.6553 80.5649L83.2239 80.4679C82.9737 80.4117 82.7839 80.319 82.6545 80.1896C82.5252 80.0603 82.4614 79.9003 82.4631 79.7096C82.4631 79.5462 82.5073 79.4016 82.5958 79.2756C82.686 79.1497 82.812 79.0518 82.9737 78.982C83.1354 78.9122 83.3234 78.8774 83.5379 78.8774C83.7387 78.8774 83.9157 78.9105 84.0689 78.9769C84.2221 79.0416 84.3429 79.1335 84.4314 79.2526C84.5199 79.3718 84.5719 79.5105 84.5872 79.6688H84.0664ZM86.4738 79.3471H84.9574V78.9131H86.4738V79.3471ZM85.9122 78.2493V80.8713C85.9122 80.97 85.9266 81.0457 85.9556 81.0985C85.9845 81.1512 86.0228 81.1878 86.0705 81.2083C86.1181 81.2287 86.1751 81.2389 86.2415 81.2389C86.3232 81.2389 86.4143 81.2355 86.5147 81.2287V81.6984C86.4177 81.7138 86.3053 81.7214 86.1777 81.7214C86.0296 81.7214 85.8935 81.6942 85.7692 81.6397C85.6467 81.5835 85.5479 81.5001 85.4731 81.3895C85.3999 81.2772 85.3633 81.141 85.3633 80.981V78.2493H85.9122ZM87.01 78.9131H87.5308V79.365H87.5665C87.6278 79.2101 87.7231 79.0901 87.8525 79.005C87.9818 78.9199 88.1376 78.8774 88.3197 78.8774C88.4405 78.8774 88.5494 78.8961 88.6465 78.9335C88.7452 78.971 88.8294 79.0263 88.8992 79.0995C88.969 79.1727 89.0243 79.2612 89.0652 79.365H89.0932C89.1392 79.2629 89.2022 79.1761 89.2822 79.1046C89.3622 79.0314 89.4566 78.9752 89.5655 78.9361C89.6762 78.8969 89.797 78.8774 89.9281 78.8774C90.1 78.8774 90.2497 78.9131 90.3774 78.9846C90.505 79.0561 90.6046 79.1624 90.6761 79.3037C90.7493 79.445 90.7859 79.6203 90.7859 79.8296V81.6857H90.2395V79.8807C90.2395 79.7003 90.191 79.5667 90.094 79.4799C89.997 79.3914 89.8728 79.3471 89.7213 79.3471C89.6055 79.3471 89.506 79.3718 89.4226 79.4211C89.3392 79.4688 89.2753 79.536 89.2311 79.6228C89.1868 79.7079 89.1647 79.8067 89.1647 79.919V81.6857H88.6235V79.8424C88.6235 79.7454 88.6022 79.6594 88.5597 79.5845C88.5188 79.5079 88.4601 79.4492 88.3835 79.4084C88.3069 79.3675 88.2193 79.3471 88.1205 79.3471C88.0201 79.3471 87.9265 79.3735 87.8397 79.4263C87.7529 79.479 87.6831 79.5531 87.6304 79.6484C87.5793 79.7437 87.5538 79.8526 87.5538 79.9751V81.6857H87.01V78.9131ZM92.6419 81.7418C92.3747 81.7418 92.1407 81.6831 91.9398 81.5657C91.7407 81.4482 91.5875 81.2823 91.4803 81.0678C91.3731 80.8534 91.3195 80.604 91.3195 80.3198C91.3195 80.0356 91.3731 79.7845 91.4803 79.5667C91.5875 79.3471 91.7382 79.1778 91.9322 79.0586C92.1262 78.9378 92.35 78.8774 92.6036 78.8774C92.8283 78.8774 93.0334 78.9259 93.2189 79.0229C93.4044 79.1182 93.5534 79.2705 93.6657 79.4799C93.778 79.6875 93.8342 79.9505 93.8342 80.2687V80.4602H91.6258V80.0543H93.3006C93.3006 79.913 93.2717 79.7879 93.2138 79.679C93.1576 79.5684 93.0768 79.4816 92.9713 79.4186C92.8657 79.3556 92.7449 79.3241 92.6087 79.3241C92.4607 79.3241 92.3305 79.3599 92.2181 79.4314C92.1058 79.5028 92.0181 79.599 91.9552 79.7198C91.8922 79.8407 91.8607 79.97 91.8607 80.1079V80.4245C91.8607 80.6066 91.893 80.7632 91.9577 80.8942C92.0241 81.0253 92.116 81.1249 92.2334 81.1929C92.3526 81.261 92.4896 81.2951 92.6445 81.2951C92.7432 81.2951 92.8326 81.2814 92.9125 81.2542C92.9925 81.2253 93.0606 81.1895 93.1168 81.147C93.173 81.1027 93.2164 81.0508 93.247 80.9912H93.801C93.7601 81.141 93.687 81.2721 93.5814 81.3844C93.4759 81.4967 93.3423 81.5844 93.1806 81.6474C93.0206 81.7103 92.8411 81.7418 92.6419 81.7418ZM95.5677 81.7418C95.3005 81.7418 95.0664 81.6831 94.8656 81.5657C94.6665 81.4482 94.5133 81.2823 94.4061 81.0678C94.2988 80.8534 94.2452 80.604 94.2452 80.3198C94.2452 80.0356 94.2988 79.7845 94.4061 79.5667C94.5133 79.3471 94.6639 79.1778 94.8579 79.0586C95.052 78.9378 95.2758 78.8774 95.5294 78.8774C95.754 78.8774 95.9591 78.9259 96.1447 79.0229C96.3302 79.1182 96.4791 79.2705 96.5914 79.4799C96.7038 79.6875 96.7599 79.9505 96.7599 80.2687V80.4602H94.5516V80.0543H96.2264C96.2264 79.913 96.1974 79.7879 96.1396 79.679C96.0834 79.5684 96.0025 79.4816 95.897 79.4186C95.7915 79.3556 95.6706 79.3241 95.5345 79.3241C95.3864 79.3241 95.2562 79.3599 95.1439 79.4314C95.0315 79.5028 94.9439 79.599 94.8809 79.7198C94.8179 79.8407 94.7865 79.97 94.7865 80.1079V80.4245C94.7865 80.6066 94.8188 80.7632 94.8835 80.8942C94.9498 81.0253 95.0418 81.1249 95.1592 81.1929C95.2783 81.261 95.4153 81.2951 95.5702 81.2951C95.6689 81.2951 95.7583 81.2814 95.8383 81.2542C95.9183 81.2253 95.9864 81.1895 96.0425 81.147C96.0987 81.1027 96.1421 81.0508 96.1727 80.9912H96.7267C96.6859 81.141 96.6127 81.2721 96.5072 81.3844C96.4017 81.4967 96.2681 81.5844 96.1064 81.6474C95.9464 81.7103 95.7668 81.7418 95.5677 81.7418ZM98.5904 79.3471H97.074V78.9131H98.5904V79.3471ZM98.0288 78.2493V80.8713C98.0288 80.97 98.0432 81.0457 98.0722 81.0985C98.1011 81.1512 98.1394 81.1878 98.1871 81.2083C98.2347 81.2287 98.2917 81.2389 98.3581 81.2389C98.4398 81.2389 98.5309 81.2355 98.6313 81.2287V81.6984C98.5343 81.7138 98.4219 81.7214 98.2943 81.7214C98.1462 81.7214 98.0101 81.6942 97.8858 81.6397C97.7633 81.5835 97.6645 81.5001 97.5897 81.3895C97.5165 81.2772 97.4799 81.141 97.4799 80.981V78.2493H98.0288ZM99.1266 78.9131H99.6704V81.6857H99.1266V78.9131ZM99.3972 78.4842C99.3359 78.4842 99.2789 78.4706 99.2261 78.4433C99.1734 78.4144 99.1317 78.3753 99.101 78.3259C99.0704 78.2748 99.0551 78.2204 99.0551 78.1625C99.0551 78.1029 99.0704 78.0493 99.101 78.0017C99.1317 77.9523 99.1734 77.9132 99.2261 77.8842C99.2789 77.8553 99.3359 77.8408 99.3972 77.8408C99.4619 77.8408 99.5206 77.8553 99.5734 77.8842C99.6261 77.9132 99.667 77.9523 99.6959 78.0017C99.7265 78.0493 99.7419 78.1029 99.7419 78.1625C99.7419 78.2204 99.7265 78.2748 99.6959 78.3259C99.667 78.3753 99.6261 78.4144 99.5734 78.4433C99.5206 78.4706 99.4619 78.4842 99.3972 78.4842ZM100.88 81.6857H100.337V78.9131H100.858V79.365H100.893C100.961 79.2101 101.063 79.0901 101.2 79.005C101.337 78.9199 101.509 78.8774 101.713 78.8774C101.903 78.8774 102.068 78.9174 102.208 78.9973C102.349 79.0756 102.458 79.1931 102.535 79.3497C102.613 79.5062 102.652 79.6969 102.652 79.9215V81.6857H102.108V79.9854C102.108 79.8526 102.086 79.7386 102.04 79.6433C101.994 79.5479 101.927 79.4756 101.84 79.4263C101.754 79.3752 101.648 79.3497 101.524 79.3497C101.398 79.3497 101.286 79.3769 101.189 79.4314C101.092 79.4841 101.017 79.5633 100.962 79.6688C100.908 79.7726 100.88 79.8969 100.88 80.0415V81.6857ZM104.48 82.7835C104.25 82.7835 104.047 82.7503 103.87 82.6839C103.693 82.6192 103.553 82.5248 103.449 82.4005C103.347 82.2763 103.288 82.1282 103.273 81.9563H103.827C103.854 82.0856 103.925 82.1827 104.039 82.2473C104.154 82.312 104.304 82.3443 104.488 82.3443C104.713 82.3443 104.886 82.2941 105.009 82.1937C105.131 82.0933 105.193 81.9376 105.193 81.7265V81.1827H105.159L105.154 81.1929C105.108 81.2729 105.056 81.3444 104.999 81.4074C104.941 81.4704 104.857 81.5257 104.748 81.5733C104.641 81.621 104.51 81.6448 104.355 81.6448C104.136 81.6448 103.937 81.5912 103.76 81.484C103.585 81.3768 103.446 81.2193 103.344 81.0117C103.244 80.804 103.194 80.5564 103.194 80.2687C103.194 79.9811 103.244 79.7326 103.344 79.5233C103.445 79.3122 103.582 79.1522 103.758 79.0433C103.935 78.9327 104.136 78.8774 104.36 78.8774C104.507 78.8774 104.631 78.8995 104.733 78.9437C104.835 78.988 104.915 79.0407 104.973 79.102C105.033 79.1633 105.088 79.2356 105.139 79.319L105.164 79.3599H105.198V78.9131H105.734V81.7469C105.734 81.975 105.68 82.1665 105.573 82.3214C105.466 82.478 105.318 82.5937 105.131 82.6686C104.944 82.7452 104.727 82.7835 104.48 82.7835ZM104.475 81.1929C104.628 81.1929 104.759 81.1563 104.868 81.0832C104.977 81.01 105.06 80.9061 105.116 80.7717C105.172 80.6355 105.2 80.4721 105.2 80.2815C105.2 80.0926 105.172 79.9275 105.116 79.7862C105.06 79.6433 104.977 79.5335 104.868 79.4569C104.761 79.3803 104.63 79.342 104.475 79.342C104.32 79.342 104.188 79.3829 104.079 79.4645C103.97 79.5445 103.888 79.656 103.832 79.799C103.776 79.9403 103.748 80.1011 103.748 80.2815C103.748 80.4636 103.776 80.6236 103.832 80.7615C103.888 80.8976 103.97 81.004 104.079 81.0806C104.188 81.1555 104.32 81.1929 104.475 81.1929ZM106.941 81.6857H106.398V77.9889H106.941V81.6857ZM107.603 78.9131H108.146V81.6857H107.603V78.9131ZM107.873 78.4842C107.812 78.4842 107.755 78.4706 107.702 78.4433C107.649 78.4144 107.608 78.3753 107.577 78.3259C107.546 78.2748 107.531 78.2204 107.531 78.1625C107.531 78.1029 107.546 78.0493 107.577 78.0017C107.608 77.9523 107.649 77.9132 107.702 77.8842C107.755 77.8553 107.812 77.8408 107.873 77.8408C107.938 77.8408 107.997 77.8553 108.049 77.8842C108.102 77.9132 108.143 77.9523 108.172 78.0017C108.203 78.0493 108.218 78.1029 108.218 78.1625C108.218 78.2204 108.203 78.2748 108.172 78.3259C108.143 78.3753 108.102 78.4144 108.049 78.4433C107.997 78.4706 107.938 78.4842 107.873 78.4842ZM109.357 81.6857H108.813V78.9131H109.334V79.365H109.369C109.437 79.2101 109.539 79.0901 109.676 79.005C109.813 78.9199 109.985 78.8774 110.189 78.8774C110.379 78.8774 110.545 78.9174 110.684 78.9973C110.825 79.0756 110.934 79.1931 111.011 79.3497C111.089 79.5062 111.128 79.6969 111.128 79.9215V81.6857H110.584V79.9854C110.584 79.8526 110.562 79.7386 110.516 79.6433C110.47 79.5479 110.403 79.4756 110.316 79.4263C110.23 79.3752 110.124 79.3497 110 79.3497C109.874 79.3497 109.762 79.3769 109.665 79.4314C109.568 79.4841 109.493 79.5633 109.438 79.6688C109.384 79.7726 109.357 79.8969 109.357 80.0415V81.6857ZM112.29 80.0824H112.387L113.487 78.9131H114.138L112.877 80.2509H112.79L112.295 80.7462L112.29 80.0824ZM111.795 77.9889H112.338V81.6857H111.795V77.9889ZM112.555 80.3734L112.928 79.9905L114.212 81.6857H113.546L112.555 80.3734Z" fill="#A4A4A4"/>
<path d="M9.41113 82.5205H114.233V82.8754H9.41113V82.5205Z" fill="#A4A4A4"/>
<path d="M21.773 56.5748H20.4968V55.8741H21.773V56.5748ZM21.773 58.7552H20.4968V58.0428H21.773V58.7552ZM23.7694 61.3232H22.9317V54.2534H23.7694V61.3232ZM22.3328 60.9905H21.5146V54.3748H22.3328V60.9905ZM19.2637 54.7897C19.5769 54.7897 19.8496 54.8915 20.0818 55.0951C20.3141 55.2986 20.4942 55.5909 20.6221 55.9719C20.7499 56.353 20.8139 56.8005 20.8139 57.3146C20.8139 57.8262 20.7499 58.2737 20.6221 58.6574C20.4942 59.0384 20.3141 59.332 20.0818 59.5382C19.8496 59.7443 19.5769 59.8474 19.2637 59.8474C18.9557 59.8474 18.6856 59.7443 18.4534 59.5382C18.2237 59.332 18.0449 59.0384 17.9171 58.6574C17.7918 58.2737 17.7292 57.8262 17.7292 57.3146C17.7292 56.7979 17.7918 56.3503 17.9171 55.9719C18.0449 55.5909 18.225 55.2986 18.4573 55.0951C18.6895 54.8915 18.9584 54.7897 19.2637 54.7897ZM19.2637 55.6118C19.1097 55.6118 18.9779 55.677 18.8683 55.8075C18.7587 55.9354 18.6739 56.1272 18.6139 56.383C18.5564 56.6361 18.5277 56.9467 18.5277 57.3146C18.5277 57.68 18.5564 57.9893 18.6139 58.2424C18.6739 58.4956 18.7587 58.6874 18.8683 58.8179C18.9779 58.9484 19.1097 59.0136 19.2637 59.0136C19.4203 59.0136 19.5547 58.9484 19.6669 58.8179C19.7791 58.6874 19.8652 58.4956 19.9253 58.2424C19.9879 57.9867 20.0192 57.6774 20.0192 57.3146C20.0192 56.9493 19.9879 56.64 19.9253 56.3869C19.8652 56.1311 19.7778 55.938 19.663 55.8075C19.5508 55.677 19.4177 55.6118 19.2637 55.6118ZM31.1367 55.9484H29.9075V55.2438H31.1367V55.9484ZM31.1367 57.4869H29.9075V56.7588H31.1367V57.4869ZM30.1737 58.4381H29.3047V54.2534H30.1737V58.4381ZM30.1737 61.3232H29.3047V59.4442H25.4566V58.7357H30.1737V61.3232ZM26.5762 54.6566C26.9363 54.654 27.2613 54.7258 27.5509 54.8719C27.8406 55.0155 28.069 55.2177 28.236 55.4787C28.403 55.7371 28.4865 56.0307 28.4865 56.3595C28.4865 56.6883 28.403 56.9832 28.236 57.2442C28.0716 57.5052 27.8445 57.7087 27.5549 57.8549C27.2652 58.001 26.939 58.0741 26.5762 58.0741C26.2161 58.0741 25.8911 58.001 25.6015 57.8549C25.3118 57.7087 25.0834 57.5052 24.9164 57.2442C24.752 56.9832 24.6698 56.6883 24.6698 56.3595C24.6698 56.0307 24.752 55.7371 24.9164 55.4787C25.0834 55.2203 25.3118 55.0181 25.6015 54.8719C25.8938 54.7258 26.2187 54.654 26.5762 54.6566ZM26.5762 55.3965C26.3779 55.3965 26.1978 55.4356 26.036 55.5139C25.8742 55.5922 25.7476 55.7044 25.6563 55.8506C25.5675 55.9941 25.5232 56.1638 25.5232 56.3595C25.5232 56.5552 25.5675 56.7262 25.6563 56.8723C25.7476 57.0184 25.8742 57.132 26.036 57.2129C26.1978 57.2912 26.3779 57.3303 26.5762 57.3303C26.7798 57.3303 26.9611 57.2912 27.1203 57.2129C27.2821 57.132 27.4087 57.0184 27.5001 56.8723C27.5914 56.7262 27.6371 56.5552 27.6371 56.3595C27.6371 56.1638 27.5914 55.9941 27.5001 55.8506C27.4087 55.7044 27.2821 55.5922 27.1203 55.5139C26.9611 55.4356 26.7798 55.3965 26.5762 55.3965ZM35.4859 55.5648C35.4859 55.9537 35.4245 56.3308 35.3019 56.6961C35.1792 57.0615 34.9939 57.389 34.746 57.6787C34.4981 57.9684 34.1967 58.1876 33.8417 58.3364L33.3681 57.6631C33.6812 57.5273 33.9448 57.346 34.1588 57.1189C34.3728 56.8919 34.5333 56.6439 34.6403 56.3751C34.7473 56.1063 34.8008 55.8362 34.8008 55.5648V54.6919H35.4859V55.5648ZM35.6425 55.5648C35.6425 55.8258 35.6934 56.0789 35.7951 56.3242C35.8995 56.5696 36.0548 56.7901 36.261 56.9858C36.4671 57.1816 36.719 57.3381 37.0165 57.4556L36.5546 58.1171C36.2049 57.9814 35.91 57.7857 35.6699 57.53C35.4298 57.2716 35.251 56.9741 35.1336 56.6374C35.0161 56.2982 34.9574 55.9406 34.9574 55.5648V54.6919H35.6425V55.5648ZM39.4827 58.6026H38.6528V54.2612H39.4827V58.6026ZM38.8955 56.7549H37.6859V56.0463H38.8955V56.7549ZM37.9482 58.3794H37.1378V54.3904H37.9482V58.3794ZM37.0948 58.7161C37.588 58.7161 38.0173 58.7683 38.3827 58.8727C38.7481 58.9744 39.0286 59.1232 39.2243 59.3189C39.4201 59.5147 39.5179 59.7482 39.5179 60.0197C39.5179 60.2858 39.4201 60.5168 39.2243 60.7125C39.0286 60.9083 38.7481 61.0583 38.3827 61.1627C38.0173 61.2671 37.588 61.3193 37.0948 61.3193C36.6015 61.3193 36.1709 61.2671 35.803 61.1627C35.4376 61.0583 35.157 60.9083 34.9613 60.7125C34.7682 60.5168 34.6716 60.2858 34.6716 60.0197C34.6716 59.7482 34.7682 59.5147 34.9613 59.3189C35.157 59.1232 35.4376 58.9744 35.803 58.8727C36.1683 58.7683 36.5989 58.7161 37.0948 58.7161ZM37.0948 59.3698C36.7686 59.3698 36.488 59.3946 36.2531 59.4442C36.0209 59.4938 35.8434 59.5669 35.7208 59.6634C35.6007 59.76 35.5407 59.8787 35.5407 60.0197C35.5407 60.1554 35.6007 60.2715 35.7208 60.3681C35.8434 60.4646 36.0209 60.5377 36.2531 60.5873C36.4854 60.6369 36.766 60.6616 37.0948 60.6616C37.421 60.6616 37.6989 60.6369 37.9286 60.5873C38.1609 60.5377 38.3383 60.4646 38.461 60.3681C38.5863 60.2715 38.6489 60.1554 38.6489 60.0197C38.6489 59.8787 38.5863 59.76 38.461 59.6634C38.3383 59.5669 38.1596 59.4938 37.9247 59.4442C37.6924 59.3946 37.4158 59.3698 37.0948 59.3698ZM42.7906 55.3064C42.7906 55.7788 42.7136 56.2173 42.5596 56.6218C42.4056 57.0263 42.1773 57.3786 41.8745 57.6787C41.5744 57.9788 41.2091 58.2072 40.7784 58.3638L40.3126 57.6591C40.6936 57.5339 41.0159 57.3525 41.2795 57.115C41.5457 56.8775 41.7454 56.6048 41.8785 56.2968C42.0115 55.9863 42.0781 55.6562 42.0781 55.3064V54.637H42.7906V55.3064ZM42.9511 55.2673C42.9511 55.5935 43.0137 55.9028 43.139 56.1951C43.2642 56.4874 43.4521 56.7444 43.7027 56.9662C43.9532 57.1855 44.2572 57.3525 44.6148 57.4673L44.145 58.1445C43.7353 57.9984 43.3882 57.7857 43.1037 57.5065C42.8219 57.2272 42.6092 56.8971 42.4656 56.5161C42.3221 56.135 42.2503 55.7188 42.2503 55.2673V54.637H42.9511V55.2673ZM46.2863 58.4147H45.4173V54.2534H46.2863V58.4147ZM43.8945 58.6065C44.3956 58.6065 44.8262 58.66 45.1863 58.767C45.5491 58.8714 45.827 59.0266 46.0201 59.2328C46.2132 59.4364 46.3098 59.6817 46.3098 59.9688C46.3098 60.2506 46.2132 60.4933 46.0201 60.6969C45.827 60.9004 45.5491 61.0544 45.1863 61.1588C44.8262 61.2658 44.3956 61.3193 43.8945 61.3193C43.3986 61.3193 42.9693 61.2658 42.6066 61.1588C42.2464 61.0544 41.9685 60.9004 41.7728 60.6969C41.5796 60.4933 41.4831 60.2506 41.4831 59.9688C41.4831 59.6817 41.5796 59.4364 41.7728 59.2328C41.9685 59.0266 42.2464 58.8714 42.6066 58.767C42.9693 58.66 43.3986 58.6065 43.8945 58.6065ZM43.8945 59.2837C43.5683 59.2837 43.289 59.3098 43.0568 59.362C42.8245 59.4116 42.6483 59.4886 42.5283 59.593C42.4082 59.6947 42.3482 59.82 42.3482 59.9688C42.3482 60.1071 42.4082 60.2271 42.5283 60.3289C42.6483 60.4307 42.8245 60.5077 43.0568 60.5599C43.289 60.6121 43.5683 60.6382 43.8945 60.6382C44.2259 60.6382 44.5065 60.6121 44.7361 60.5599C44.9684 60.5077 45.1432 60.4307 45.2607 60.3289C45.3807 60.2271 45.4408 60.1071 45.4408 59.9688C45.4408 59.82 45.3807 59.6947 45.2607 59.593C45.1432 59.4886 44.9684 59.4116 44.7361 59.362C44.5065 59.3098 44.2259 59.2837 43.8945 59.2837ZM45.5543 56.3399H44.008V55.6274H45.5543V56.3399ZM53.176 61.3428H52.2953V54.2534H53.176V61.3428ZM49.3632 54.7701C49.7181 54.7701 50.0352 54.8732 50.3145 55.0794C50.5937 55.283 50.8116 55.5739 50.9682 55.9524C51.1248 56.3282 51.2031 56.7666 51.2031 57.2677C51.2031 57.7714 51.1248 58.2124 50.9682 58.5908C50.8116 58.9666 50.5937 59.2576 50.3145 59.4638C50.0352 59.6699 49.7181 59.773 49.3632 59.773C49.0057 59.773 48.6873 59.6699 48.408 59.4638C48.1288 59.2576 47.9096 58.9666 47.7504 58.5908C47.5938 58.2124 47.5155 57.7714 47.5155 57.2677C47.5155 56.7666 47.5938 56.3282 47.7504 55.9524C47.9096 55.5739 48.1288 55.283 48.408 55.0794C48.6873 54.8732 49.0057 54.7701 49.3632 54.7701ZM49.3632 55.5531C49.1649 55.5505 48.9887 55.6183 48.8347 55.7566C48.6834 55.8923 48.5659 56.0894 48.4824 56.3477C48.3989 56.6061 48.3571 56.9127 48.3571 57.2677C48.3571 57.6226 48.3989 57.9305 48.4824 58.1915C48.5659 58.4499 48.6834 58.6469 48.8347 58.7826C48.9887 58.9157 49.1649 58.9823 49.3632 58.9823C49.5615 58.9823 49.7364 58.9157 49.8878 58.7826C50.0391 58.6469 50.1566 58.4499 50.2401 58.1915C50.3236 57.9305 50.3653 57.6226 50.3653 57.2677C50.3653 56.9127 50.3236 56.6061 50.2401 56.3477C50.1566 56.0894 50.0391 55.8923 49.8878 55.7566C49.739 55.6183 49.5642 55.5505 49.3632 55.5531ZM58.7152 58.2228H57.8423V57.1463H58.7152V58.2228ZM58.2651 54.5588C58.6069 54.5588 58.911 54.6188 59.1772 54.7388C59.446 54.8563 59.656 55.0233 59.8074 55.2399C59.9614 55.4539 60.0384 55.7018 60.0384 55.9837C60.0384 56.2577 59.9614 56.503 59.8074 56.7196C59.656 56.9336 59.446 57.1006 59.1772 57.2207C58.911 57.3407 58.6069 57.4008 58.2651 57.4008C57.9232 57.4008 57.6165 57.3407 57.3451 57.2207C57.0763 57.1006 56.8675 56.9336 56.7188 56.7196C56.57 56.503 56.4956 56.2577 56.4956 55.9837C56.4956 55.7044 56.57 55.4565 56.7188 55.2399C56.8675 55.0233 57.0763 54.8563 57.3451 54.7388C57.6165 54.6188 57.9232 54.5588 58.2651 54.5588ZM58.2651 55.2203C58.0798 55.2203 57.914 55.2516 57.7679 55.3143C57.6217 55.3769 57.5082 55.4656 57.4273 55.5805C57.349 55.6953 57.3099 55.8297 57.3099 55.9837C57.3099 56.135 57.349 56.2668 57.4273 56.3791C57.5082 56.4913 57.6217 56.5787 57.7679 56.6413C57.914 56.704 58.0798 56.7366 58.2651 56.7392C58.453 56.7366 58.6187 56.704 58.7622 56.6413C58.9084 56.5787 59.0206 56.4913 59.0989 56.3791C59.1798 56.2668 59.2202 56.135 59.2202 55.9837C59.2202 55.8271 59.1798 55.6914 59.0989 55.5766C59.0206 55.4591 58.9084 55.3704 58.7622 55.3104C58.6187 55.2503 58.453 55.2203 58.2651 55.2203ZM61.7373 59.6595H60.8644V54.2612H61.7373V59.6595ZM62.6925 57.2716H61.4163V56.5435H62.6925V57.2716ZM61.9839 61.1862H57.0789V60.4777H61.9839V61.1862ZM57.9558 60.7947H57.0789V59.1898H57.9558V60.7947ZM56.112 57.9958C56.8949 57.9984 57.6544 57.984 58.3903 57.9527C59.1263 57.9214 59.8126 57.8588 60.4494 57.7648L60.512 58.4029C59.8622 58.5204 59.1824 58.5986 58.4725 58.6378C57.7653 58.6743 57.0111 58.6926 56.2099 58.6926L56.112 57.9958ZM65.6167 60.0823H64.7672V58.3794H65.6167V60.0823ZM67.8872 60.0745H67.0338V58.3716H67.8872V60.0745ZM69.5274 60.509H63.0605V59.7926H69.5274V60.509ZM68.7562 57.0093H64.6929V58.2933H63.8238V56.3125H67.8989V55.4395H63.8121V54.7349H68.7562V57.0093ZM68.9246 58.6221H63.8238V57.9136H68.9246V58.6221ZM74.1976 57.8901H70.51V57.1894H74.1976V57.8901ZM72.7648 59.3033H71.8958V57.7492H72.7648V59.3033ZM74.1623 55.5922H71.3712V57.4243H70.51V54.8993H74.1623V55.5922ZM75.8769 61.3428H75.0157V54.2534H75.8769V61.3428ZM70.0167 59.1741C70.8701 59.1767 71.6778 59.1663 72.4399 59.1428C73.2019 59.1193 73.9183 59.071 74.589 58.9979L74.6556 59.636C74.1728 59.7091 73.673 59.7639 73.1563 59.8004C72.6421 59.837 72.1502 59.8605 71.6805 59.8709C71.2133 59.8813 70.6953 59.8866 70.1264 59.8866L70.0167 59.1741ZM79.3257 58.8453C79.3257 59.1924 79.2657 59.5225 79.1456 59.8357C79.0282 60.1488 78.8481 60.4268 78.6054 60.6695C78.3653 60.9148 78.0704 61.104 77.7207 61.2371L77.294 60.5912C77.5915 60.4894 77.8421 60.3472 78.0456 60.1645C78.2518 59.9792 78.4058 59.773 78.5076 59.546C78.6093 59.3163 78.6602 59.0828 78.6602 58.8453V58.5125H79.3257V58.8453ZM79.5019 58.8453C79.5019 59.088 79.5462 59.3255 79.635 59.5577C79.7263 59.79 79.8659 60.0014 80.0538 60.1919C80.2443 60.3824 80.4805 60.539 80.7624 60.6616L80.3827 61.2919C80.0382 61.1614 79.7524 60.9696 79.5254 60.7165C79.3009 60.4659 79.1339 60.1788 79.0243 59.8552C78.9173 59.5316 78.8638 59.195 78.8638 58.8453V58.5125H79.5019V58.8453ZM81.9054 58.8453C81.9054 59.1689 81.8519 59.4912 81.7449 59.8122C81.6379 60.1306 81.4696 60.4216 81.24 60.6851C81.0129 60.9513 80.7271 61.1536 80.3827 61.2919L80.0264 60.6616C80.3005 60.5312 80.5314 60.3654 80.7193 60.1645C80.9072 59.9635 81.0455 59.7482 81.1343 59.5186C81.2256 59.2889 81.2713 59.0645 81.2713 58.8453V58.5125H81.9054V58.8453ZM82.1286 58.8453C82.1286 59.0958 82.1782 59.3359 82.2773 59.5656C82.3791 59.7926 82.5331 59.9962 82.7393 60.1762C82.948 60.3563 83.2038 60.4946 83.5065 60.5912L83.0642 61.2371C82.7119 61.1092 82.4157 60.9265 82.1756 60.6891C81.9355 60.4542 81.7567 60.1788 81.6393 59.8631C81.5244 59.5473 81.467 59.208 81.467 58.8453V58.5125H82.1286V58.8453ZM82.1756 56.6531H80.4022V55.9445H82.1756V56.6531ZM78.8794 54.6292C79.2265 54.6292 79.541 54.7023 79.8229 54.8484C80.1047 54.992 80.3265 55.1916 80.4884 55.4474C80.6502 55.7031 80.7311 55.9915 80.7311 56.3125C80.7311 56.6335 80.6502 56.9232 80.4884 57.1816C80.3265 57.4373 80.1047 57.637 79.8229 57.7805C79.541 57.924 79.2265 57.9958 78.8794 57.9958C78.5271 57.9958 78.2087 57.924 77.9243 57.7805C77.6424 57.637 77.4193 57.4373 77.2549 57.1816C77.0931 56.9232 77.0122 56.6335 77.0122 56.3125C77.0122 55.9915 77.0931 55.7031 77.2549 55.4474C77.4193 55.1916 77.6424 54.992 77.9243 54.8484C78.2087 54.7023 78.5271 54.6292 78.8794 54.6292ZM78.8794 55.3613C78.6811 55.3586 78.5036 55.3965 78.3471 55.4748C78.1905 55.5505 78.0678 55.6614 77.9791 55.8075C77.893 55.9511 77.8499 56.1194 77.8499 56.3125C77.8499 56.5004 77.8943 56.6674 77.983 56.8136C78.0717 56.9571 78.1931 57.0693 78.3471 57.1502C78.5036 57.2311 78.6811 57.2729 78.8794 57.2755C79.0726 57.2729 79.2461 57.2311 79.4001 57.1502C79.5567 57.0693 79.678 56.9571 79.7641 56.8136C79.8529 56.6674 79.8972 56.5004 79.8972 56.3125C79.8972 56.1194 79.8529 55.9511 79.7641 55.8075C79.678 55.6614 79.5567 55.5505 79.4001 55.4748C79.2461 55.3965 79.0726 55.3586 78.8794 55.3613ZM82.841 58.2424H81.972V54.2534H82.841V58.2424ZM85.4834 59.1741H88.5955V58.4969H89.4646V61.241H84.6183V58.4969H85.4834V59.1741ZM88.5955 60.556V59.8396H85.4834V60.556H88.5955ZM90.2906 58.0937H83.8471V57.389H90.2906V58.0937ZM87.3742 54.5979C87.3742 54.9972 87.2515 55.3678 87.0062 55.7097C86.7609 56.0489 86.4203 56.3321 85.9845 56.5591C85.5487 56.7862 85.0528 56.9375 84.4969 57.0132L84.1759 56.3282C84.6561 56.2681 85.0828 56.152 85.456 55.9798C85.8292 55.8049 86.1163 55.5974 86.3172 55.3573C86.5208 55.1146 86.6226 54.8615 86.6226 54.5979V54.3278H87.3742V54.5979ZM87.519 54.5979C87.519 54.8563 87.6208 55.1068 87.8244 55.3495C88.0279 55.5922 88.315 55.8023 88.6856 55.9798C89.0588 56.1572 89.4815 56.2734 89.9539 56.3282L89.6447 57.0132C89.0862 56.9375 88.5877 56.7849 88.1493 56.5552C87.7134 56.3256 87.3742 56.0424 87.1315 55.7057C86.8888 55.3665 86.7674 54.9972 86.7674 54.5979V54.3278H87.519V54.5979ZM96.6792 61.3232H95.8141V54.2534H96.6792V61.3232ZM92.0404 59.3228H91.1792V54.9385H92.0404V59.3228ZM91.7859 58.8139C92.3497 58.8139 92.9147 58.7892 93.481 58.7396C94.0473 58.6874 94.6123 58.6052 95.176 58.4929L95.2895 59.2172C94.7023 59.3372 94.1204 59.4233 93.5436 59.4755C92.9669 59.5277 92.381 59.5538 91.7859 59.5538H91.1792V58.8139H91.7859ZM103.244 61.3428H102.375V54.2534H103.244V61.3428ZM104.336 57.6552H103.048V56.9388H104.336V57.6552ZM98.5739 58.8844C99.2289 58.887 99.8044 58.8714 100.3 58.8374C100.799 58.8035 101.301 58.7409 101.807 58.6495L101.905 59.3855C101.394 59.4768 100.886 59.5368 100.382 59.5656C99.8814 59.5943 99.2785 59.6073 98.5739 59.6047H97.9906V58.8844H98.5739ZM101.302 55.6314H98.8597V59.2367H97.9906V54.9228H101.302V55.6314ZM105.491 60.6969C105.381 60.6969 105.28 60.6695 105.186 60.6147C105.092 60.5573 105.017 60.4829 104.963 60.3915C104.91 60.2976 104.884 60.1958 104.884 60.0862C104.884 59.9792 104.91 59.88 104.963 59.7887C105.017 59.6947 105.092 59.6217 105.186 59.5695C105.28 59.5147 105.381 59.4873 105.491 59.4873C105.595 59.4873 105.695 59.5147 105.789 59.5695C105.882 59.6217 105.957 59.6947 106.012 59.7887C106.066 59.88 106.094 59.9792 106.094 60.0862C106.094 60.1958 106.066 60.2976 106.012 60.3915C105.957 60.4829 105.882 60.5573 105.789 60.6147C105.695 60.6695 105.595 60.6969 105.491 60.6969Z" fill="black"/>
<circle cx="61.8712" cy="39.2143" r="7.84286" fill="#6349F6"/>
<path fill-rule="evenodd" clip-rule="evenodd" d="M64.8321 37.4619L60.8645 41.4295L58.7334 39.1319L59.1934 38.7053L60.8815 40.5252L64.3884 37.0182L64.8321 37.4619Z" fill="white" stroke="white" stroke-width="0.348571"/>
<g filter="url(#filter0_d_879_1228)">
<rect x="9.41113" y="127.926" width="103.526" height="14.64" rx="6.97143" fill="white"/>
</g>
<path d="M19.0658 136.842C20.4029 136.437 21.3708 135.252 21.3708 133.853C21.3708 132.119 19.8853 130.714 18.0528 130.714C16.4682 130.714 15.143 131.765 14.8134 133.17C15.0348 133.125 15.264 133.099 15.4986 133.096C15.8389 132.068 16.8537 131.322 18.0528 131.322C19.5306 131.322 20.7286 132.455 20.7286 133.853C20.7286 134.906 20.049 135.808 19.0822 136.19C19.0884 136.271 19.0916 136.353 19.0916 136.436C19.0916 136.574 19.0828 136.709 19.0658 136.842Z" fill="#6349F6"/>
<path d="M18.6635 136.639C18.6635 138.372 17.1779 139.777 15.3454 139.777C13.5129 139.777 12.0273 138.372 12.0273 136.639C12.0273 134.905 13.5129 133.5 15.3454 133.5C17.1779 133.5 18.6635 134.905 18.6635 136.639Z" fill="#5FCF9B"/>
<path d="M18.0213 136.639C18.0213 138.036 16.8232 139.17 15.3454 139.17C13.8676 139.17 12.6696 138.036 12.6696 136.639C12.6696 135.241 13.8676 134.108 15.3454 134.108C16.8232 134.108 18.0213 135.241 18.0213 136.639Z" fill="white"/>
<path d="M15.0243 135.974C15.0243 135.875 15.1092 135.795 15.2138 135.795H15.3343C15.439 135.795 15.5238 135.875 15.5238 135.974V136.403V136.403C15.3711 136.526 15.3198 136.705 15.3619 136.896C15.3762 136.961 15.3755 137.01 15.3343 137.01H15.2138C15.1092 137.01 15.0243 136.93 15.0243 136.831V135.974Z" fill="#6349F6"/>
<path d="M16.7207 135.439C16.8004 135.375 16.92 135.384 16.9878 135.459L17.0659 135.546C17.1338 135.621 17.1242 135.734 17.0445 135.798L15.4924 137.048C15.4127 137.112 15.2931 137.103 15.2253 137.028L15.1472 136.941C15.0793 136.866 15.0889 136.753 15.1686 136.689L16.7207 135.439Z" fill="#6349F6"/>
<path d="M15.6665 136.836C15.6665 137.004 15.5228 137.14 15.3454 137.14C15.1681 137.14 15.0243 137.004 15.0243 136.836C15.0243 136.668 15.1681 136.532 15.3454 136.532C15.5228 136.532 15.6665 136.668 15.6665 136.836Z" fill="#16103A"/>
<path d="M16.6327 132.622C16.5713 132.542 16.5902 132.43 16.675 132.372L16.7726 132.305C16.8573 132.247 16.9758 132.265 17.0372 132.345L18.2331 133.906C18.2945 133.987 18.2755 134.099 18.1908 134.157L18.0932 134.224C18.0084 134.282 17.89 134.264 17.8286 134.184L16.6327 132.622Z" fill="#5FCF9B"/>
<path d="M18.8815 133.627C18.9828 133.602 19.0861 133.66 19.1122 133.756L19.1422 133.866C19.1682 133.962 19.1071 134.06 19.0058 134.085L18.1289 134.298C18.0275 134.322 17.9243 134.265 17.8982 134.169L17.8682 134.058C17.8422 133.962 17.9032 133.865 18.0046 133.84L18.8815 133.627Z" fill="#5FCF9B"/>
<path d="M18.355 134.071C18.355 134.239 18.2112 134.375 18.0339 134.375C17.8565 134.375 17.7128 134.239 17.7128 134.071C17.7128 133.904 17.8565 133.768 18.0339 133.768C18.2112 133.768 18.355 133.904 18.355 134.071Z" fill="#16103A"/>
<path d="M25.4802 136.485L25.9103 137.038L26.3146 137.51L27.0971 138.497H26.1852L25.6452 137.83L25.3768 137.449L24.6491 136.485H25.4802ZM27.1715 135.767C27.1715 136.263 27.0767 136.693 26.8869 137.058C26.6994 137.42 26.4396 137.697 26.1076 137.889C25.7777 138.078 25.4037 138.173 24.9855 138.173C24.5672 138.173 24.1921 138.078 23.8601 137.889C23.5302 137.697 23.2705 137.419 23.0807 137.054C22.8932 136.69 22.7994 136.261 22.7994 135.767C22.7994 135.267 22.8932 134.836 23.0807 134.474C23.2705 134.112 23.5302 133.836 23.8601 133.646C24.1921 133.456 24.5672 133.361 24.9855 133.361C25.4037 133.361 25.7777 133.456 26.1076 133.646C26.4396 133.836 26.6994 134.112 26.8869 134.474C27.0767 134.836 27.1715 135.267 27.1715 135.767ZM26.1884 135.767C26.1884 135.437 26.1389 135.157 26.0397 134.926C25.9427 134.696 25.8036 134.521 25.6225 134.403C25.4436 134.282 25.2312 134.222 24.9855 134.222C24.7418 134.222 24.5295 134.282 24.3484 134.403C24.1695 134.521 24.0304 134.696 23.9312 134.926C23.8321 135.157 23.7825 135.437 23.7825 135.767C23.7825 136.097 23.8321 136.377 23.9312 136.608C24.0304 136.839 24.1695 137.014 24.3484 137.135C24.5295 137.254 24.7418 137.313 24.9855 137.313C25.2312 137.313 25.4436 137.254 25.6225 137.135C25.8036 137.014 25.9427 136.839 26.0397 136.608C26.1389 136.377 26.1884 136.097 26.1884 135.767ZM30.1143 134.597H31.065V138.109H30.1499V137.475H30.1111C30.027 137.684 29.8933 137.85 29.7101 137.973C29.5268 138.093 29.3058 138.154 29.0471 138.154C28.8143 138.154 28.6084 138.101 28.4295 137.995C28.2505 137.888 28.1104 137.735 28.0091 137.536C27.9099 137.336 27.8603 137.101 27.8603 136.831V134.597H28.8175V136.666C28.8175 136.802 28.8423 136.922 28.8919 137.025C28.9415 137.127 29.0126 137.205 29.1053 137.261C29.2002 137.315 29.308 137.342 29.4287 137.342C29.5516 137.342 29.6648 137.314 29.7683 137.258C29.8739 137.202 29.958 137.118 30.0205 137.006C30.083 136.894 30.1143 136.762 30.1143 136.611V134.597ZM33.3934 138.176C33.0441 138.176 32.7391 138.101 32.4782 137.95C32.2174 137.799 32.0169 137.587 31.8767 137.313C31.7366 137.039 31.6665 136.723 31.6665 136.366C31.6665 136.003 31.7366 135.686 31.8767 135.415C32.0169 135.141 32.2174 134.929 32.4782 134.778C32.7391 134.627 33.0441 134.551 33.3934 134.551C33.7405 134.551 34.0445 134.627 34.3053 134.778C34.5683 134.929 34.7688 135.141 34.9068 135.415C35.0448 135.686 35.1138 136.003 35.1138 136.366C35.1138 136.723 35.0448 137.039 34.9068 137.313C34.7688 137.587 34.5683 137.799 34.3053 137.95C34.0445 138.101 33.7405 138.176 33.3934 138.176ZM33.3999 137.436C33.5594 137.436 33.6941 137.39 33.8041 137.297C33.9162 137.204 34.0003 137.077 34.0563 136.915C34.1124 136.751 34.1404 136.566 34.1404 136.359C34.1404 136.15 34.1124 135.965 34.0563 135.803C34.0003 135.641 33.9162 135.514 33.8041 135.421C33.6941 135.329 33.5594 135.282 33.3999 135.282C33.236 135.282 33.097 135.329 32.9827 135.421C32.8684 135.514 32.7822 135.641 32.724 135.803C32.6658 135.962 32.6367 136.148 32.6367 136.359C32.6367 136.568 32.6658 136.754 32.724 136.915C32.7822 137.077 32.8684 137.204 32.9827 137.297C33.097 137.39 33.236 137.436 33.3999 137.436ZM35.2949 133.426H39.1302V134.228H37.6944V138.109H36.7339V134.228H35.2949V133.426ZM39.7155 134.597H40.6727V138.109H39.7155V134.597ZM40.1941 134.134C40.0992 134.134 40.0119 134.113 39.9322 134.07C39.8524 134.026 39.7888 133.967 39.7414 133.892C39.6939 133.816 39.6702 133.735 39.6702 133.649C39.6702 133.561 39.6939 133.48 39.7414 133.407C39.7888 133.331 39.8524 133.272 39.9322 133.229C40.0119 133.186 40.0992 133.164 40.1941 133.164C40.289 133.164 40.3763 133.186 40.456 133.229C40.5358 133.272 40.5983 133.331 40.6436 133.407C40.691 133.48 40.7147 133.561 40.7147 133.649C40.7147 133.735 40.691 133.816 40.6436 133.892C40.5983 133.967 40.5358 134.026 40.456 134.07C40.3763 134.113 40.289 134.134 40.1941 134.134ZM41.4165 134.597H42.3284V135.211H42.3672C42.4448 135.002 42.5688 134.84 42.7391 134.726C42.9094 134.61 43.1121 134.551 43.3471 134.551C43.5045 134.551 43.6478 134.578 43.7772 134.632C43.9087 134.684 44.0186 134.759 44.107 134.859C44.1954 134.958 44.2601 135.075 44.301 135.211H44.3334C44.3851 135.077 44.4617 134.961 44.563 134.862C44.6643 134.763 44.7861 134.686 44.9284 134.632C45.0707 134.578 45.2259 134.551 45.3941 134.551C45.614 134.551 45.8069 134.599 45.9729 134.694C46.1411 134.786 46.2715 134.923 46.3642 135.104C46.4569 135.283 46.5033 135.499 46.5033 135.751V138.109H45.5428V135.932C45.5428 135.74 45.4922 135.595 45.3908 135.496C45.2895 135.394 45.1569 135.344 44.9931 135.344C44.8745 135.344 44.7721 135.37 44.6859 135.421C44.6018 135.471 44.536 135.542 44.4886 135.635C44.4433 135.725 44.4207 135.833 44.4207 135.958V138.109H43.4926V135.906C43.4926 135.794 43.47 135.695 43.4247 135.609C43.3816 135.523 43.319 135.457 43.2371 135.412C43.1552 135.366 43.0603 135.344 42.9525 135.344C42.8448 135.344 42.7467 135.371 42.6583 135.424C42.572 135.476 42.503 135.552 42.4513 135.651C42.3996 135.75 42.3737 135.865 42.3737 135.997V138.109H41.4165V134.597ZM48.8316 138.176C48.4781 138.176 48.1698 138.103 47.9068 137.957C47.6459 137.81 47.4443 137.601 47.302 137.329C47.1619 137.058 47.0918 136.738 47.0918 136.372C47.0918 136.01 47.1619 135.692 47.302 135.418C47.4443 135.142 47.6437 134.929 47.9003 134.778C48.1568 134.627 48.4543 134.551 48.7928 134.551C49.1097 134.551 49.3922 134.618 49.6401 134.752C49.888 134.883 50.0831 135.083 50.2254 135.35C50.3677 135.617 50.4388 135.944 50.4388 136.33V136.598H47.4831V136H49.5366C49.5366 135.858 49.5053 135.732 49.4428 135.622C49.3803 135.51 49.2941 135.422 49.1841 135.36C49.0742 135.297 48.9491 135.266 48.809 135.266C48.6602 135.266 48.5276 135.301 48.4112 135.37C48.2948 135.436 48.2032 135.529 48.1364 135.648C48.0717 135.766 48.0383 135.896 48.0361 136.036V136.598C48.0361 136.773 48.0695 136.926 48.1364 137.058C48.2032 137.189 48.297 137.289 48.4177 137.358C48.5406 137.427 48.6829 137.462 48.8446 137.462C48.9524 137.462 49.0504 137.447 49.1388 137.417C49.2272 137.384 49.3016 137.343 49.362 137.294C49.4245 137.242 49.4719 137.182 49.5043 137.113H50.4162C50.3709 137.326 50.2771 137.514 50.1349 137.675C49.9947 137.835 49.8126 137.959 49.5883 138.047C49.3663 138.133 49.114 138.176 48.8316 138.176Z" fill="black"/>
<path d="M55.4677 134.437C55.7524 134.437 56.0098 134.486 56.2399 134.583C56.47 134.679 56.6514 134.815 56.7842 134.991C56.9169 135.166 56.9833 135.367 56.9833 135.595C56.9833 135.822 56.9169 136.024 56.7842 136.201C56.6514 136.378 56.47 136.514 56.2399 136.61C56.0098 136.706 55.7524 136.754 55.4677 136.754C55.1845 136.754 54.9278 136.706 54.6977 136.61C54.4676 136.514 54.2861 136.378 54.1534 136.201C54.0206 136.024 53.9542 135.822 53.9542 135.595C53.9542 135.367 54.0206 135.166 54.1534 134.991C54.2861 134.813 54.4676 134.677 54.6977 134.581C54.9278 134.485 55.1845 134.437 55.4677 134.437ZM55.4677 134.893C55.2818 134.892 55.1159 134.92 54.9698 134.977C54.8238 135.035 54.7095 135.117 54.6269 135.223C54.5457 135.329 54.5052 135.453 54.5052 135.595C54.5052 135.738 54.5457 135.862 54.6269 135.968C54.7095 136.073 54.8238 136.154 54.9698 136.21C55.1159 136.266 55.2818 136.294 55.4677 136.294C55.6535 136.294 55.8187 136.266 55.9633 136.21C56.1078 136.154 56.2207 136.073 56.3018 135.968C56.3844 135.862 56.4257 135.738 56.4257 135.595C56.4257 135.453 56.3844 135.329 56.3018 135.223C56.2207 135.117 56.1078 135.035 55.9633 134.977C55.8187 134.92 55.6535 134.892 55.4677 134.893ZM57.3152 137.77H53.6334V137.314H57.3152V137.77ZM61.2315 137.812H57.5497V137.349H61.2315V137.812ZM59.6606 137.542H59.1052V136.586H59.6606V137.542ZM60.8067 135.827H58.5366V136.515H57.9746V135.384H60.2491V134.946H57.9679V134.493H60.8067V135.827ZM60.9018 136.738H57.9746V136.28H60.9018V136.738ZM64.5659 136.5H62.6321V134.563H64.5659V136.5ZM63.1919 136.055H64.0106V135.015H63.1919V136.055ZM65.7076 137.172H65.1434V134.234H65.7076V137.172ZM66.2519 135.858H65.5439V135.393H66.2519V135.858ZM65.8515 138.19H63.0945V137.734H65.8515V138.19ZM63.6588 137.96H63.0945V136.88H63.6588V137.96ZM70.1107 136.672H66.4312V136.221H70.1107V136.672ZM69.708 135.891H66.8759V135.44H69.708V135.891ZM69.6682 134.827H67.4379V135.606H66.8759V134.378H69.6682V134.827ZM69.7279 138.183H66.8737V137.73H69.7279V138.183ZM67.429 137.849H66.8737V136.984H67.429V137.849ZM73.6952 135.577H73.007V135.123H73.6952V135.577ZM73.6952 136.827H73.007V136.367H73.6952V136.827ZM74.8855 138.259H74.3435V134.227H74.8855V138.259ZM74.0602 138.073H73.5314V134.289H74.0602V138.073ZM72.3056 134.517C72.4841 134.517 72.6405 134.576 72.7747 134.694C72.9089 134.811 73.0122 134.979 73.0845 135.198C73.1582 135.418 73.1951 135.677 73.1951 135.975C73.1951 136.272 73.1582 136.53 73.0845 136.752C73.0122 136.972 72.9089 137.141 72.7747 137.261C72.6405 137.379 72.4841 137.438 72.3056 137.44C72.1286 137.438 71.9737 137.379 71.841 137.261C71.7082 137.141 71.6057 136.972 71.5334 136.752C71.4626 136.53 71.4272 136.272 71.4272 135.975C71.4272 135.676 71.4626 135.417 71.5334 135.198C71.6057 134.979 71.7082 134.811 71.841 134.694C71.9752 134.576 72.1301 134.517 72.3056 134.517ZM72.3056 135.052C72.2275 135.051 72.1611 135.085 72.1065 135.154C72.0534 135.222 72.0121 135.325 71.9826 135.462C71.9546 135.599 71.9406 135.77 71.9406 135.975C71.9406 136.18 71.9546 136.351 71.9826 136.488C72.0121 136.626 72.0534 136.728 72.1065 136.796C72.1611 136.864 72.2275 136.898 72.3056 136.898C72.3853 136.898 72.4524 136.864 72.507 136.796C72.563 136.728 72.6058 136.625 72.6353 136.486C72.6663 136.348 72.6818 136.177 72.6818 135.975C72.6818 135.772 72.6663 135.601 72.6353 135.464C72.6058 135.327 72.563 135.224 72.507 135.154C72.4509 135.085 72.3838 135.051 72.3056 135.052ZM79.0298 135.221H78.3306V134.765H79.0298V135.221ZM79.0298 136.099H78.3306V135.63H79.0298V136.099ZM78.5054 136.606H77.9412V134.227H78.5054V136.606ZM78.5054 138.259H77.9412V137.225H75.7949V136.767H78.5054V138.259ZM76.441 134.453C76.6475 134.451 76.8341 134.493 77.0008 134.577C77.169 134.661 77.301 134.777 77.3969 134.926C77.4942 135.075 77.5429 135.244 77.5429 135.433C77.5429 135.62 77.495 135.79 77.3991 135.942C77.3032 136.092 77.1712 136.21 77.003 136.296C76.8363 136.38 76.649 136.422 76.441 136.422C76.233 136.422 76.0457 136.38 75.879 136.296C75.7123 136.21 75.5803 136.092 75.483 135.942C75.3856 135.79 75.3369 135.62 75.3369 135.433C75.3369 135.244 75.3856 135.076 75.483 134.929C75.5803 134.78 75.7131 134.663 75.8812 134.579C76.0494 134.493 76.236 134.451 76.441 134.453ZM76.441 134.931C76.3363 134.931 76.2419 134.951 76.1578 134.991C76.0752 135.03 76.0103 135.088 75.9631 135.163C75.9159 135.238 75.8923 135.328 75.8923 135.433C75.8923 135.538 75.9159 135.628 75.9631 135.705C76.0103 135.78 76.0752 135.839 76.1578 135.88C76.2419 135.92 76.3363 135.94 76.441 135.94C76.5457 135.94 76.6394 135.92 76.722 135.88C76.8061 135.839 76.8717 135.78 76.9189 135.705C76.9676 135.628 76.992 135.538 76.992 135.433C76.992 135.328 76.9676 135.238 76.9189 135.163C76.8717 135.088 76.8068 135.03 76.7242 134.991C76.6416 134.951 76.5472 134.931 76.441 134.931ZM83.7957 138.259H83.2559V134.227H83.7957V138.259ZM82.6053 136.201H82.0566V135.696H82.6053V136.201ZM82.9837 138.066H82.4505V134.309H82.9837V138.066ZM82.1495 135.141H80.3064V134.687H82.1495V135.141ZM80.2334 136.876C80.5933 136.876 80.9459 136.87 81.2911 136.858C81.6377 136.845 81.9467 136.82 82.2181 136.783L82.2558 137.185C81.977 137.246 81.6679 137.286 81.3287 137.307C80.9909 137.326 80.6464 137.336 80.2954 137.336L80.2334 136.876ZM81.0698 137.004H80.5653V134.975H81.0698V137.004ZM81.8951 137.004H81.3796V134.975H81.8951V137.004ZM87.5638 138.27H86.9907V134.227H87.5638V138.27ZM85.3755 134.513C85.5776 134.513 85.7591 134.572 85.9198 134.69C86.0821 134.808 86.2082 134.975 86.2982 135.192C86.3896 135.409 86.4354 135.661 86.4354 135.949C86.4354 136.238 86.3896 136.491 86.2982 136.707C86.2082 136.924 86.0821 137.092 85.9198 137.21C85.7591 137.326 85.5776 137.385 85.3755 137.385C85.1705 137.385 84.9869 137.326 84.8246 137.21C84.6638 137.092 84.5377 136.924 84.4462 136.707C84.3548 136.491 84.3091 136.238 84.3091 135.949C84.3091 135.661 84.3548 135.409 84.4462 135.192C84.5377 134.975 84.6638 134.808 84.8246 134.69C84.9869 134.572 85.1705 134.513 85.3755 134.513ZM85.3755 135.024C85.2723 135.022 85.1808 135.058 85.1012 135.13C85.023 135.201 84.9625 135.306 84.9197 135.446C84.8784 135.585 84.8578 135.752 84.8578 135.949C84.8578 136.145 84.8784 136.312 84.9197 136.451C84.9625 136.589 85.023 136.695 85.1012 136.767C85.1808 136.838 85.2723 136.873 85.3755 136.873C85.4773 136.873 85.5673 136.838 85.6455 136.767C85.7237 136.695 85.7841 136.589 85.8269 136.451C85.8697 136.312 85.8911 136.145 85.8911 135.949C85.8911 135.752 85.8697 135.585 85.8269 135.446C85.7841 135.306 85.7237 135.201 85.6455 135.13C85.5688 135.058 85.4788 135.022 85.3755 135.024ZM89.5507 135.327C89.5507 135.644 89.5057 135.946 89.4158 136.234C89.3273 136.52 89.1967 136.775 89.0241 136.997C88.8515 137.22 88.6436 137.388 88.4002 137.502L88.0771 137.057C88.294 136.958 88.4784 136.817 88.6303 136.634C88.7837 136.452 88.8987 136.247 88.9755 136.022C89.0536 135.794 89.0927 135.563 89.0927 135.327V134.858H89.5507V135.327ZM89.668 135.327C89.668 135.551 89.7064 135.77 89.7831 135.984C89.8598 136.198 89.9741 136.391 90.126 136.564C90.2779 136.735 90.4623 136.865 90.6792 136.955L90.3738 137.398C90.1245 137.29 89.9136 137.132 89.741 136.922C89.5684 136.713 89.4386 136.471 89.3516 136.199C89.266 135.924 89.2233 135.634 89.2233 135.327V134.858H89.668V135.327ZM90.5132 135.081H88.2387V134.621H90.5132V135.081ZM91.4801 138.259H90.9071V134.227H91.4801V138.259ZM95.3942 136.398H94.83V134.227H95.3942V136.398ZM93.2591 136.946H94.8322V136.573H95.3942V138.214H92.7037V136.573H93.2591V136.946ZM94.8322 137.758V137.385H93.2591V137.758H94.8322ZM93.1883 134.398C93.3963 134.396 93.5836 134.436 93.7503 134.517C93.9184 134.597 94.0504 134.71 94.1463 134.856C94.2422 135.002 94.2901 135.168 94.2901 135.353C94.2901 135.532 94.2422 135.693 94.1463 135.838C94.0504 135.981 93.9184 136.093 93.7503 136.174C93.5836 136.255 93.3963 136.297 93.1883 136.298C92.9803 136.297 92.7922 136.255 92.6241 136.174C92.4574 136.093 92.3261 135.981 92.2302 135.838C92.1343 135.693 92.0864 135.532 92.0864 135.353C92.0864 135.168 92.1343 135.002 92.2302 134.856C92.3261 134.71 92.4574 134.597 92.6241 134.517C92.7922 134.436 92.9803 134.396 93.1883 134.398ZM93.1883 134.869C93.0806 134.867 92.9847 134.887 92.9006 134.926C92.818 134.966 92.7531 135.022 92.7059 135.094C92.6602 135.167 92.6373 135.253 92.6373 135.353C92.6373 135.451 92.6602 135.536 92.7059 135.608C92.7531 135.68 92.818 135.736 92.9006 135.776C92.9847 135.814 93.0806 135.834 93.1883 135.836C93.2945 135.834 93.3881 135.814 93.4693 135.776C93.5519 135.736 93.616 135.68 93.6618 135.608C93.7075 135.536 93.7304 135.451 93.7304 135.353C93.7304 135.253 93.7068 135.167 93.6596 135.094C93.6138 135.022 93.5504 134.966 93.4693 134.926C93.3881 134.887 93.2945 134.867 93.1883 134.869ZM99.3261 138.259H98.7663V134.227H99.3261V138.259ZM96.7152 137.117H96.1576V134.614H96.7152V137.117ZM96.5138 136.785C96.8295 136.785 97.1488 136.771 97.4719 136.743C97.7964 136.713 98.118 136.668 98.4366 136.608L98.5074 137.075C98.1755 137.143 97.8443 137.191 97.5139 137.221C97.185 137.25 96.8516 137.265 96.5138 137.265H96.1576V136.785H96.5138ZM103.034 138.27H102.468V134.227H103.034V138.27ZM103.632 136.188H102.91V135.725H103.632V136.188ZM100.357 136.825C100.723 136.826 101.047 136.817 101.328 136.798C101.61 136.779 101.893 136.745 102.178 136.696L102.24 137.17C101.951 137.219 101.663 137.251 101.377 137.267C101.091 137.284 100.751 137.291 100.357 137.289H100.016V136.825H100.357ZM101.906 135.061H100.581V137.055H100.016V134.603H101.906V135.061ZM104.293 137.891C104.227 137.891 104.165 137.874 104.108 137.84C104.05 137.805 104.005 137.759 103.973 137.703C103.94 137.646 103.924 137.584 103.924 137.517C103.924 137.452 103.94 137.392 103.973 137.336C104.005 137.278 104.05 137.233 104.108 137.201C104.165 137.168 104.227 137.152 104.293 137.152C104.36 137.152 104.421 137.168 104.477 137.201C104.535 137.233 104.58 137.278 104.614 137.336C104.648 137.392 104.665 137.452 104.665 137.517C104.665 137.584 104.648 137.646 104.614 137.703C104.58 137.759 104.535 137.805 104.477 137.84C104.421 137.874 104.36 137.891 104.293 137.891Z" fill="#A4A4A4"/>
<path fill-rule="evenodd" clip-rule="evenodd" d="M108.509 13.3478L114.086 7.77063L114.579 8.26358L109.002 13.8407L108.509 13.3478Z" fill="#A4A4A4"/>
<path fill-rule="evenodd" clip-rule="evenodd" d="M114.579 13.3478L109.002 7.77063L108.509 8.26358L114.086 13.8407L114.579 13.3478Z" fill="#A4A4A4"/>
<defs>
<filter id="filter0_d_879_1228" x="8.01685" y="127.577" width="106.314" height="17.4286" filterUnits="userSpaceOnUse" color-interpolation-filters="sRGB">
<feFlood flood-opacity="0" result="BackgroundImageFix"/>
<feColorMatrix in="SourceAlpha" type="matrix" values="0 0 0 0 0 0 0 0 0 0 0 0 0 0 0 0 0 0 127 0" result="hardAlpha"/>
<feOffset dy="1.04571"/>
<feGaussianBlur stdDeviation="0.697143"/>
<feComposite in2="hardAlpha" operator="out"/>
<feColorMatrix type="matrix" values="0 0 0 0 0 0 0 0 0 0 0 0 0 0 0 0 0 0 0.5 0"/>
<feBlend mode="normal" in2="BackgroundImageFix" result="effect1_dropShadow_879_1228"/>
<feBlend mode="normal" in="SourceGraphic" in2="effect1_dropShadow_879_1228" result="shape"/>
</filter>
</defs>
</svg>
